<?xml version="1.0" encoding="UTF-8"?>
<svg version="1.1" xmlns="http://www.w3.org/2000/svg" width="1366" height="768">
<path d="M0 0 C11.08062441 5.5816877 20.00803183 9.50722278 32.40966797 6.09521484 C37.72531325 4.20289411 42.63421453 1.61686686 47.63623047 -0.97509766 C70.26509294 -12.6839085 70.26509294 -12.6839085 79.97216797 -10.65869141 C90.28419822 -7.32472674 94.9040288 0.75117762 99.80029297 9.88818359 C101.06166138 12.41245369 102.29268917 14.94999659 103.51953125 17.49121094 C109.26465569 29.36476016 113.67285651 37.65215577 126.36279297 42.73950195 C132.24224884 44.70419229 138.24279068 45.56451494 144.36279297 46.45068359 C168.264423 49.97552012 168.264423 49.97552012 175.80029297 57.88818359 C182.7698912 69.42407031 179.37299696 82.72824551 177.22216797 95.25537109 C175.47077219 105.88884544 173.871392 116.55096899 180.2043457 125.97827148 C184.65956559 131.72068638 189.55955397 136.73973686 194.80029297 141.76318359 C203.11818769 149.90188224 210.73973487 157.40371883 212.23779297 169.38818359 C212.03557158 179.35448115 204.94191068 187.37644929 198.14990234 193.91943359 C197.23015625 194.77537109 196.31041016 195.63130859 195.36279297 196.51318359 C181.63080889 208.96081876 181.63080889 208.96081876 175.80029297 225.88818359 C175.83064416 234.25499615 176.98269048 242.34968584 178.36279297 250.57568359 C180.30149282 262.23227619 181.53881564 272.16614664 175.11279297 282.63818359 C166.68127146 290.84182614 153.79146521 291.80484084 142.67529297 293.38818359 C133.07621019 294.76151156 124.77300195 296.10796958 116.80029297 301.88818359 C116.14029297 301.88818359 115.48029297 301.88818359 114.80029297 301.88818359 C114.52789795 302.4534375 114.25550293 303.01869141 113.97485352 303.60107422 C112.75669001 305.97308746 111.40772021 308.21305517 110.00732422 310.48193359 C107.39364299 314.80452978 105.06990344 319.20908048 102.81860352 323.72851562 C92.13617156 345.07770178 92.13617156 345.07770178 80.80029297 349.88818359 C68.8228124 352.33682859 57.2648605 345.33553776 47.11279297 339.76318359 C37.01634433 334.2230073 26.68406849 329.48031291 15.06201172 332.63037109 C6.53848983 335.65948264 -1.47938701 339.92180017 -9.50927734 344.0534668 C-18.27749949 348.54737532 -26.51439963 352.08963529 -36.47705078 349.23583984 C-46.44693406 344.77713964 -50.6472264 334.90845199 -55.32617188 325.66210938 C-56.1608826 324.01424382 -57.00007428 322.36864194 -57.84326172 320.72509766 C-58.68380818 319.08523909 -59.51448722 317.44027151 -60.33349609 315.78955078 C-64.86472423 306.95824218 -69.71639019 300.70937265 -79.09472656 296.88085938 C-84.83244485 295.04648584 -90.6878188 294.18445407 -96.63720703 293.32568359 C-123.8411949 289.30125674 -123.8411949 289.30125674 -130.19970703 280.88818359 C-132.79484103 275.86888914 -133.68723115 271.75078413 -133.57470703 266.07568359 C-133.56890625 265.34212646 -133.56310547 264.60856934 -133.55712891 263.8527832 C-133.4330151 258.43831852 -132.69713283 253.26582902 -131.69970703 247.95068359 C-130.53531717 241.70035886 -129.84683911 235.62579716 -129.76220703 229.26318359 C-129.74029297 228.54138916 -129.71837891 227.81959473 -129.69580078 227.07592773 C-129.72380139 219.54288971 -132.92392854 213.77525997 -138.01220703 208.32568359 C-139.17429687 207.07658203 -139.17429687 207.07658203 -140.35986328 205.80224609 C-142.52453928 203.55745567 -144.73103724 201.35693251 -146.94580078 199.16162109 C-147.93519653 198.18044312 -147.93519653 198.18044312 -148.94458008 197.17944336 C-150.25123984 195.88996603 -151.56365037 194.60628222 -152.88256836 193.3293457 C-159.66419749 186.67917448 -165.4121014 180.11857273 -165.63720703 170.20068359 C-165.33663717 157.89234757 -157.50417688 150.11077839 -149.19970703 141.88818359 C-147.81971238 140.66179259 -146.42589928 139.45057333 -145.01220703 138.26318359 C-137.35327606 131.78618642 -130.87491943 124.15153985 -129.92626953 113.94677734 C-129.71664328 106.98879816 -130.50203301 100.52917137 -131.69970703 93.70068359 C-132.85698922 87.01732808 -133.55159713 80.48727458 -133.63720703 73.70068359 C-133.65912109 72.9353833 -133.68103516 72.17008301 -133.70361328 71.3815918 C-133.68081153 64.89093181 -131.85394031 59.5634405 -127.22705078 54.89990234 C-116.92167358 48.36995305 -105.30959667 47.12776387 -93.42822266 45.51513672 C-82.96794469 43.97477539 -73.15746741 41.31935205 -66.19970703 32.88818359 C-61.86710908 26.38731552 -58.41676531 19.31645077 -54.91064453 12.34912109 C-45.67066093 -5.88529147 -45.67066093 -5.88529147 -36.32470703 -10.17431641 C-23.55187687 -13.97634562 -10.9964402 -5.56162626 0 0 Z " fill="#FEFDFD" transform="translate(661.19970703125,222.11181640625)"/>
<path d="M0 0 C11.08062441 5.5816877 20.00803183 9.50722278 32.40966797 6.09521484 C37.72531325 4.20289411 42.63421453 1.61686686 47.63623047 -0.97509766 C70.26509294 -12.6839085 70.26509294 -12.6839085 79.97216797 -10.65869141 C90.28419822 -7.32472674 94.9040288 0.75117762 99.80029297 9.88818359 C101.06166138 12.41245369 102.29268917 14.94999659 103.51953125 17.49121094 C109.26465569 29.36476016 113.67285651 37.65215577 126.36279297 42.73950195 C132.24224884 44.70419229 138.24279068 45.56451494 144.36279297 46.45068359 C168.264423 49.97552012 168.264423 49.97552012 175.80029297 57.88818359 C182.7698912 69.42407031 179.37299696 82.72824551 177.22216797 95.25537109 C175.47077219 105.88884544 173.871392 116.55096899 180.2043457 125.97827148 C184.65956559 131.72068638 189.55955397 136.73973686 194.80029297 141.76318359 C203.11818769 149.90188224 210.73973487 157.40371883 212.23779297 169.38818359 C212.03557158 179.35448115 204.94191068 187.37644929 198.14990234 193.91943359 C197.23015625 194.77537109 196.31041016 195.63130859 195.36279297 196.51318359 C181.63080889 208.96081876 181.63080889 208.96081876 175.80029297 225.88818359 C175.83064416 234.25499615 176.98269048 242.34968584 178.36279297 250.57568359 C180.30149282 262.23227619 181.53881564 272.16614664 175.11279297 282.63818359 C166.68127146 290.84182614 153.79146521 291.80484084 142.67529297 293.38818359 C133.07621019 294.76151156 124.77300195 296.10796958 116.80029297 301.88818359 C116.14029297 301.88818359 115.48029297 301.88818359 114.80029297 301.88818359 C114.52789795 302.4534375 114.25550293 303.01869141 113.97485352 303.60107422 C112.75669001 305.97308746 111.40772021 308.21305517 110.00732422 310.48193359 C107.39364299 314.80452978 105.06990344 319.20908048 102.81860352 323.72851562 C92.13617156 345.07770178 92.13617156 345.07770178 80.80029297 349.88818359 C68.8228124 352.33682859 57.2648605 345.33553776 47.11279297 339.76318359 C37.01634433 334.2230073 26.68406849 329.48031291 15.06201172 332.63037109 C6.53848983 335.65948264 -1.47938701 339.92180017 -9.50927734 344.0534668 C-18.27749949 348.54737532 -26.51439963 352.08963529 -36.47705078 349.23583984 C-46.44693406 344.77713964 -50.6472264 334.90845199 -55.32617188 325.66210938 C-56.1608826 324.01424382 -57.00007428 322.36864194 -57.84326172 320.72509766 C-58.68380818 319.08523909 -59.51448722 317.44027151 -60.33349609 315.78955078 C-64.86472423 306.95824218 -69.71639019 300.70937265 -79.09472656 296.88085938 C-84.83244485 295.04648584 -90.6878188 294.18445407 -96.63720703 293.32568359 C-123.8411949 289.30125674 -123.8411949 289.30125674 -130.19970703 280.88818359 C-132.79484103 275.86888914 -133.68723115 271.75078413 -133.57470703 266.07568359 C-133.56890625 265.34212646 -133.56310547 264.60856934 -133.55712891 263.8527832 C-133.4330151 258.43831852 -132.69713283 253.26582902 -131.69970703 247.95068359 C-130.53531717 241.70035886 -129.84683911 235.62579716 -129.76220703 229.26318359 C-129.74029297 228.54138916 -129.71837891 227.81959473 -129.69580078 227.07592773 C-129.72380139 219.54288971 -132.92392854 213.77525997 -138.01220703 208.32568359 C-139.17429687 207.07658203 -139.17429687 207.07658203 -140.35986328 205.80224609 C-142.52453928 203.55745567 -144.73103724 201.35693251 -146.94580078 199.16162109 C-147.93519653 198.18044312 -147.93519653 198.18044312 -148.94458008 197.17944336 C-150.25123984 195.88996603 -151.56365037 194.60628222 -152.88256836 193.3293457 C-159.66419749 186.67917448 -165.4121014 180.11857273 -165.63720703 170.20068359 C-165.33663717 157.89234757 -157.50417688 150.11077839 -149.19970703 141.88818359 C-147.81971238 140.66179259 -146.42589928 139.45057333 -145.01220703 138.26318359 C-137.35327606 131.78618642 -130.87491943 124.15153985 -129.92626953 113.94677734 C-129.71664328 106.98879816 -130.50203301 100.52917137 -131.69970703 93.70068359 C-132.85698922 87.01732808 -133.55159713 80.48727458 -133.63720703 73.70068359 C-133.65912109 72.9353833 -133.68103516 72.17008301 -133.70361328 71.3815918 C-133.68081153 64.89093181 -131.85394031 59.5634405 -127.22705078 54.89990234 C-116.92167358 48.36995305 -105.30959667 47.12776387 -93.42822266 45.51513672 C-82.96794469 43.97477539 -73.15746741 41.31935205 -66.19970703 32.88818359 C-61.86710908 26.38731552 -58.41676531 19.31645077 -54.91064453 12.34912109 C-45.67066093 -5.88529147 -45.67066093 -5.88529147 -36.32470703 -10.17431641 C-23.55187687 -13.97634562 -10.9964402 -5.56162626 0 0 Z M-6.19970703 32.88818359 C-7.26535889 33.08903564 -7.26535889 33.08903564 -8.35253906 33.29394531 C-42.57284904 40.05604249 -73.71451514 63.00187198 -93.10253906 91.51367188 C-114.05160654 123.1764177 -121.58448983 160.79600328 -114.28955078 198.24755859 C-107.88244692 226.90545308 -93.44827503 251.67613111 -72.19970703 271.88818359 C-71.54099609 272.53013672 -70.88228516 273.17208984 -70.20361328 273.83349609 C-45.98487124 296.66035641 -12.4638665 309.57316848 20.7097168 309.27929688 C22.86619993 309.2631581 25.02081748 309.27929314 27.17724609 309.29833984 C36.74573755 309.31274633 45.48956356 308.11748353 54.80029297 305.88818359 C55.59056885 305.71077637 56.38084473 305.53336914 57.19506836 305.35058594 C75.89195668 300.98467465 93.92767993 291.97077543 108.80029297 279.88818359 C109.37537598 279.43362793 109.95045898 278.97907227 110.54296875 278.51074219 C136.61699213 257.80636241 154.06336278 228.75480113 160.37597656 196.07080078 C160.72889202 194.2554589 161.12797286 192.44916608 161.53857422 190.64599609 C168.21706767 158.57105474 158.38792352 122.08038439 141.16235352 94.88989258 C135.98997353 87.04302364 130.09026195 79.85840107 123.80029297 72.88818359 C123.08486328 72.08896484 122.36943359 71.28974609 121.63232422 70.46630859 C97.54258592 44.97547857 61.42939477 31.19818591 26.96435547 29.72412109 C15.69506528 29.42059832 4.85962113 30.79217976 -6.19970703 32.88818359 Z " fill="#FEFEFE" transform="translate(661.19970703125,222.11181640625)"/>
<path d="M0 0 C3.97857779 2.2683618 6.5449891 4.63496729 8 9 C8.9878969 16.69148303 7.46001632 22.65427606 3 29 C0.50175862 31.58136217 -2.12700154 33.84703341 -5 36 C-3.3954444 35.85851011 -1.79136233 35.71164314 -0.1875 35.5625 C0.70582031 35.48128906 1.59914063 35.40007812 2.51953125 35.31640625 C5.12743559 35.06510233 5.12743559 35.06510233 8 34 C10.1216468 33.85445167 12.24856706 33.77919588 14.375 33.75 C15.49648438 33.72421875 16.61796875 33.6984375 17.7734375 33.671875 C21.32667242 34.03322092 23.06723858 35.04482572 26 37 C29 37.66666667 29 37.66666667 32 37 C33.70779973 35.37550757 35.37550757 33.70779973 37 32 C39.6875 31.0625 39.6875 31.0625 42 31 C44.35953094 33.35953094 44.49141413 34.77895617 45 38 C45.845625 37.154375 46.69125 36.30875 47.5625 35.4375 C50.30980529 33.14590886 50.86258165 33.00232912 54.6875 32.9375 C58 34 58 34 59.9375 35.5625 C63.10103915 42.82003098 60.01902909 50.78918181 58 58 C62.57941287 56.51535017 64.31098843 52.78740643 66.625 48.875 C67.51419255 47.41398315 68.40351916 45.95304788 69.29296875 44.4921875 C69.74333496 43.74420898 70.19370117 42.99623047 70.65771484 42.22558594 C77.69854925 30.55147782 84.97171021 19.02416465 93 8 C93.60328125 7.15566406 94.2065625 6.31132812 94.828125 5.44140625 C97.34375802 2.40677128 98.96266542 1.19537874 102.8828125 0.45703125 C107.46190568 0.24889065 111.63331349 0.30791169 115.625 2.75 C119.12179865 6.06275661 120.30458882 8.82456109 120.4375 13.625 C120.26340077 20.57872822 117.71797445 26.19159387 112.88671875 31.18359375 C110.97435616 32.87177174 109.04073683 34.47071334 107 36 C108.6045556 35.85851011 110.20863767 35.71164314 111.8125 35.5625 C112.70582031 35.48128906 113.59914063 35.40007812 114.51953125 35.31640625 C117.12743559 35.06510233 117.12743559 35.06510233 120 34 C122.14337765 33.87983672 124.29079124 33.82468336 126.4375 33.8125 C127.57058594 33.79832031 128.70367188 33.78414063 129.87109375 33.76953125 C132.94211185 33.99573608 134.36186265 34.56802566 137 36 C140.06956826 36.5133961 142.93673299 36.57892936 146 36 C148.60910963 33.6816144 148.60910963 33.6816144 150 31 C154.875 31.875 154.875 31.875 156 33 C156.04080783 34.99958364 156.04254356 37.00045254 156 39 C156.43570313 38.566875 156.87140625 38.13375 157.3203125 37.6875 C160.26884379 34.93043178 162.15717368 33.16526006 166.1875 32.375 C169.78709917 33.17491093 170.9821365 33.89559462 173 37 C173.49257845 42.17207373 173.02116032 45.24432866 171 50 C170.54521808 52.66372269 170.27367827 55.30883034 170 58 C173.03044006 56.35490397 175.23161503 54.76838497 177.6875 52.3125 C178.450625 51.549375 179.21375 50.78625 180 50 C180.66 50 181.32 50 182 50 C180.60609461 53.15719572 178.96365028 55.2812653 176.5 57.6875 C175.8915625 58.28949219 175.283125 58.89148438 174.65625 59.51171875 C172.29162976 61.6365308 171.23121491 61.98554907 168 62.1875 C165 62 165 62 163 60 C162.26538641 54.59842945 163.18984966 50.09104783 165 45 C165.16798469 41.74955291 165.16798469 41.74955291 165 39 C163.35 38.67 161.7 38.34 160 38 C160 38.66 160 39.32 160 40 C159.34 40 158.68 40 158 40 C156.58145597 43.4647624 155.32955627 46.95601627 154.125 50.5 C152.63364127 54.6081666 151.2562293 57.95385001 148 61 C147.01 61 146.02 61 145 61 C145.48827713 53.52165033 146.33405548 46.31074682 148 39 C144.535 39.495 144.535 39.495 141 40 C141.495 40.66 141.99 41.32 142.5 42 C144.76211748 46.52423496 144.84044523 50.46962727 143.2734375 55.1875 C141.85991941 58.31332863 140.40660958 60.60571192 137.9375 63 C133.29994334 64.57874269 128.83965623 64.66127435 124 64 C121.0355519 62.33990906 119.46924018 61.41982996 118.39453125 58.16796875 C117.36971643 52.53656058 117.03086574 46.04752824 120 41 C121.32 39.68 122.64 38.36 124 37 C120.04 37.66 116.08 38.32 112 39 C112.99 40.65 113.98 42.3 115 44 C117.18487034 50.45298915 116.9792503 58.7184631 114.2265625 64.95703125 C110.0851266 71.85502798 104.72926936 77.8942022 96.94140625 80.44140625 C89.3183751 81.88907352 80.13178426 82.86868082 73.1875 78.8125 C69.43530049 76.1078253 67.30659069 72.72308723 66.49609375 68.16796875 C66.37219678 61.86574296 66.77281473 57.54866736 71.05078125 52.7421875 C78.4075398 46.16680811 88.99443984 41 99 41 C99 40.34 99 39.68 99 39 C98.00419922 39.05220703 98.00419922 39.05220703 96.98828125 39.10546875 C87.90455531 39.38394794 87.90455531 39.38394794 84 36 C84 35.34 84 34.68 84 34 C84.55945313 34.15855469 85.11890625 34.31710937 85.6953125 34.48046875 C91.21512844 35.72476624 96.31391356 35.87426704 101.375 33.25 C102.24125 32.5075 103.1075 31.765 104 31 C104.7425 30.38125 105.485 29.7625 106.25 29.125 C110.53236003 23.92499139 110.25789199 18.15198961 110.36328125 11.70703125 C110.18083592 9.03773334 110.18083592 9.03773334 108.91796875 7.13671875 C105.75553519 5.2624455 103.59066894 5.44581315 100 6 C97.80394841 8.00495438 96.36590299 9.61951787 94.6875 12 C94.22311523 12.62430908 93.75873047 13.24861816 93.28027344 13.8918457 C88.09736453 20.98540323 83.5368711 28.48453911 79 36 C75.20176495 42.23300111 71.20518397 48.23529003 66.8125 54.0625 C66.39613281 54.62348389 65.97976563 55.18446777 65.55078125 55.76245117 C63.31968219 58.66439953 61.50448545 60.78775661 58 62 C55.375 62.25 55.375 62.25 53 62 C51 60 51 60 50.734375 57.71484375 C50.76549533 52.18320551 51.16631884 47.13906722 52.5625 41.77734375 C53.07967302 39.98139472 53.07967302 39.98139472 53 38 C50.10949479 38.26079687 50.10949479 38.26079687 47 40 C43.48830359 45.14858471 41.44043897 50.97634613 40 57 C39.34 57 38.68 57 38 57 C37.34 58.32 36.68 59.64 36 61 C34.68 61 33.36 61 32 61 C32.54091128 55.2663404 33.73112147 50.03452138 35.37890625 44.515625 C36.15979793 41.78462868 36.15979793 41.78462868 36 38 C35.401875 38.33 34.80375 38.66 34.1875 39 C32 40 32 40 29 40 C29.32226562 40.54914063 29.64453125 41.09828125 29.9765625 41.6640625 C31.84841055 45.9364485 31.54286257 50.4320101 31 55 C28.9976035 59.004793 26.82001123 61.6587028 23 64 C19.34711807 65.21762731 16.84245864 65.39075851 13 65 C9.52115331 62.99327106 7.2937341 60.88120231 6 57 C4.99098694 44.61064288 4.99098694 44.61064288 8 40.1875 C8.99 39.1046875 8.99 39.1046875 10 38 C5.545 38.495 5.545 38.495 1 39 C0.67 39.99 0.34 40.98 0 42 C-0.99 42 -1.98 42 -3 42 C-2.67 42.66 -2.34 43.32 -2 44 C-1.960008 45.99960012 -1.95653201 48.00047242 -2 50 C-0.35 49.67 1.3 49.34 3 49 C3.63038724 57.27908576 3.2884948 63.36395604 -2 70 C-8.71100323 77.06278969 -14.75071501 79.63446252 -24.47265625 80.203125 C-25.65730469 80.21859375 -26.84195313 80.2340625 -28.0625 80.25 C-29.24972656 80.27578125 -30.43695312 80.3015625 -31.66015625 80.328125 C-35.3122035 79.96932738 -37.09780821 79.19847449 -40 77 C-44.03995221 71.61339705 -45.58112523 67.29922574 -45.4453125 60.625 C-44.605859 55.67664255 -41.89845052 52.98262405 -38 50 C-31.27165668 46.07644617 -24.15964028 43.04102068 -17 40 C-17.63808594 39.80664062 -18.27617188 39.61328125 -18.93359375 39.4140625 C-19.75988281 39.15367187 -20.58617187 38.89328125 -21.4375 38.625 C-22.26121094 38.36976563 -23.08492187 38.11453125 -23.93359375 37.8515625 C-26 37 -26 37 -27 35 C-26.21496094 35.04640625 -25.42992187 35.0928125 -24.62109375 35.140625 C-16.63555579 35.52943737 -16.63555579 35.52943737 -9.46875 32.51953125 C-5.16454021 28.0665057 -2.72971924 22.42666081 -2.5625 16.25 C-2.77658294 12.59761522 -3.60607242 9.39769848 -5 6 C-8.28447657 5.55022667 -8.28447657 5.55022667 -12 6 C-14.12810055 7.78709928 -15.48728157 9.20607819 -17.125 11.375 C-17.58527588 11.95080811 -18.04555176 12.52661621 -18.51977539 13.11987305 C-23.47152473 19.40080665 -28.10550255 25.9344263 -32.7421875 32.44921875 C-37.20503097 38.71125372 -41.84332452 44.83881522 -46.4765625 50.97509766 C-48.0960267 53.12763549 -49.70522545 55.28756591 -51.3125 57.44921875 C-51.85640381 58.17931152 -52.40030762 58.9094043 -52.96069336 59.66162109 C-54.00236058 61.06035424 -55.04233114 62.46035308 -56.08032227 63.86181641 C-56.55010498 64.4913623 -57.0198877 65.1209082 -57.50390625 65.76953125 C-57.91455322 66.32229736 -58.3252002 66.87506348 -58.74829102 67.44458008 C-60.06669088 69.08287256 -61.48837829 70.54000134 -63 72 C-63.66 71.67 -64.32 71.34 -65 71 C-64.64397705 70.51869629 -64.2879541 70.03739258 -63.92114258 69.54150391 C-55.67244071 58.38405622 -47.49405684 47.17937907 -39.38525391 35.91992188 C-36.92491643 32.50996524 -34.44394818 29.11507066 -31.96484375 25.71875 C-30.46510685 23.64356733 -28.97968265 21.56087679 -27.50390625 19.46875 C-12.21247421 -2.19150227 -12.21247421 -2.19150227 0 0 Z " fill="#BE5275" transform="translate(623,336)"/>
<path d="M0 0 C0.72461426 0.00080566 1.44922852 0.00161133 2.19580078 0.00244141 C9.87631188 0.08731813 17.3544453 1.0328448 24.9375 2.1875 C25.84242188 2.29707031 26.74734375 2.40664062 27.6796875 2.51953125 C61.64706947 7.33422246 93.29386319 30.09005262 113.61376953 56.90820312 C133.96260836 84.60720325 144.70379762 120.58046492 140.60498047 154.97802734 C139.66590279 161.1119565 138.36275967 167.1503515 136.9375 173.1875 C136.66035156 174.41726563 136.38320313 175.64703125 136.09765625 176.9140625 C130.80928084 197.72637864 119.85970955 216.06573131 105.9375 232.1875 C104.96876953 233.35732422 104.96876953 233.35732422 103.98046875 234.55078125 C98.89040406 240.55311823 93.15405012 245.38497793 86.9375 250.1875 C86.14214844 250.83332031 85.34679687 251.47914063 84.52734375 252.14453125 C54.82453937 275.25717301 17.45136008 282.12633781 -19.30322266 278.90332031 C-25.03124805 278.15246687 -30.54036177 276.87072507 -36.0625 275.1875 C-36.84012695 274.95144043 -37.61775391 274.71538086 -38.41894531 274.47216797 C-62.69858507 266.81504693 -83.51261505 253.63737905 -101.0625 235.1875 C-101.70445312 234.52878906 -102.34640625 233.87007812 -103.0078125 233.19140625 C-117.55795391 217.7540611 -127.66198043 198.62778696 -133.5625 178.3125 C-133.79356445 177.51827637 -134.02462891 176.72405273 -134.26269531 175.90576172 C-137.49727477 163.85339472 -138.41863012 151.57915256 -138.37817383 139.15307617 C-138.37499483 137.12169495 -138.39867917 135.09175214 -138.42382812 133.06054688 C-138.46711918 124.09151997 -137.29051849 115.86937532 -135.0625 107.1875 C-134.87437744 106.40189697 -134.68625488 105.61629395 -134.49243164 104.80688477 C-130.44989674 88.3427785 -123.19119101 72.78416674 -113.0625 59.1875 C-112.64742187 58.62724121 -112.23234375 58.06698242 -111.8046875 57.48974609 C-88.28835608 25.97132967 -55.66380094 7.51667974 -17.0625 1.1875 C-11.37367969 0.38774226 -5.74322146 -0.00687482 0 0 Z M-45.0625 13.1875 C-46.59003906 13.74050781 -46.59003906 13.74050781 -48.1484375 14.3046875 C-62.08359425 19.72183959 -74.66036595 27.58589397 -86.0625 37.1875 C-87.06925781 38.02925781 -88.07601562 38.87101562 -89.11328125 39.73828125 C-108.34172601 56.32630952 -121.51363171 78.64327455 -128.8125 102.8125 C-129.01141846 103.46863281 -129.21033691 104.12476563 -129.4152832 104.80078125 C-132.53082508 115.68579759 -133.38384303 126.33496494 -133.3125 137.625 C-133.32023438 138.84509766 -133.32796875 140.06519531 -133.3359375 141.32226562 C-133.31173543 152.7032892 -131.76645359 163.58126435 -128.8125 174.5625 C-128.59634033 175.36776123 -128.38018066 176.17302246 -128.1574707 177.00268555 C-121.87964919 199.64536658 -110.12142889 218.10990771 -94.0625 235.1875 C-93.5365625 235.77789062 -93.010625 236.36828125 -92.46875 236.9765625 C-71.51264771 259.53644813 -38.25387079 273.11348249 -7.89648438 274.27001953 C30.39166704 275.50237096 64.44272312 264.21429652 92.9375 238.1875 C93.88625 237.32253906 94.835 236.45757812 95.8125 235.56640625 C111.70895942 220.36993297 122.36258982 201.64929547 129.4375 180.9375 C129.76387451 179.99269775 130.09024902 179.04789551 130.42651367 178.07446289 C134.59389023 165.17079201 135.35448429 151.91851368 135.3125 138.4375 C135.31162384 137.74161774 135.31074768 137.04573547 135.30984497 136.32876587 C135.26258584 124.89287381 134.3946873 114.14220193 130.9375 103.1875 C130.5674585 102.00824951 130.5674585 102.00824951 130.18994141 100.80517578 C118.0450534 63.28201964 92.94431424 36.03319171 58.265625 17.78125 C46.4684947 12.0658701 32.95660225 7.78633712 19.9375 6.1875 C19.09832031 6.07792969 18.25914062 5.96835937 17.39453125 5.85546875 C-3.74996716 3.51302062 -25.11048695 5.79950404 -45.0625 13.1875 Z " fill="#C15C7D" transform="translate(683.0625,251.8125)"/>
<path d="M0 0 C3.97857779 2.2683618 6.5449891 4.63496729 8 9 C8.98762246 16.68934629 7.46242668 22.65697922 3 29 C0.98679606 31.0472619 -1.06742185 32.85723212 -3.328125 34.625 C-5.12649177 35.9140357 -5.12649177 35.9140357 -6 38 C-4.68 38.33 -3.36 38.66 -2 39 C-2.99 39 -3.98 39 -5 39 C-5 39.99 -5 40.98 -5 42 C-4.34 42 -3.68 42 -3 42 C-1.64560332 44.70879335 -1.93498549 47.00933268 -2 50 C-0.35 49.67 1.3 49.34 3 49 C3.63038724 57.27908576 3.2884948 63.36395604 -2 70 C-8.71100323 77.06278969 -14.75071501 79.63446252 -24.47265625 80.203125 C-25.65730469 80.21859375 -26.84195313 80.2340625 -28.0625 80.25 C-29.24972656 80.27578125 -30.43695312 80.3015625 -31.66015625 80.328125 C-35.3122035 79.96932738 -37.09780821 79.19847449 -40 77 C-44.03995221 71.61339705 -45.58112523 67.29922574 -45.4453125 60.625 C-44.605859 55.67664255 -41.89845052 52.98262405 -38 50 C-31.27165668 46.07644617 -24.15964028 43.04102068 -17 40 C-17.63808594 39.80664062 -18.27617188 39.61328125 -18.93359375 39.4140625 C-19.75988281 39.15367187 -20.58617187 38.89328125 -21.4375 38.625 C-22.26121094 38.36976563 -23.08492187 38.11453125 -23.93359375 37.8515625 C-26 37 -26 37 -27 35 C-26.21496094 35.04640625 -25.42992187 35.0928125 -24.62109375 35.140625 C-16.63555579 35.52943737 -16.63555579 35.52943737 -9.46875 32.51953125 C-5.16454021 28.0665057 -2.72971924 22.42666081 -2.5625 16.25 C-2.77658294 12.59761522 -3.60607242 9.39769848 -5 6 C-8.28447657 5.55022667 -8.28447657 5.55022667 -12 6 C-14.12810055 7.78709928 -15.48728157 9.20607819 -17.125 11.375 C-17.58527588 11.95080811 -18.04555176 12.52661621 -18.51977539 13.11987305 C-23.47152473 19.40080665 -28.10550255 25.9344263 -32.7421875 32.44921875 C-37.20503097 38.71125372 -41.84332452 44.83881522 -46.4765625 50.97509766 C-48.0960267 53.12763549 -49.70522545 55.28756591 -51.3125 57.44921875 C-51.85640381 58.17931152 -52.40030762 58.9094043 -52.96069336 59.66162109 C-54.00236058 61.06035424 -55.04233114 62.46035308 -56.08032227 63.86181641 C-56.55010498 64.4913623 -57.0198877 65.1209082 -57.50390625 65.76953125 C-57.91455322 66.32229736 -58.3252002 66.87506348 -58.74829102 67.44458008 C-60.06669088 69.08287256 -61.48837829 70.54000134 -63 72 C-63.66 71.67 -64.32 71.34 -65 71 C-64.64397705 70.51869629 -64.2879541 70.03739258 -63.92114258 69.54150391 C-55.67244071 58.38405622 -47.49405684 47.17937907 -39.38525391 35.91992188 C-36.92491643 32.50996524 -34.44394818 29.11507066 -31.96484375 25.71875 C-30.46510685 23.64356733 -28.97968265 21.56087679 -27.50390625 19.46875 C-12.21247421 -2.19150227 -12.21247421 -2.19150227 0 0 Z " fill="#BC5E7E" transform="translate(623,336)"/>
<path d="M0 0 C3.2032361 1.22350093 5.28327567 2.86109558 7.140625 5.8125 C8.17022288 8.4332946 8.19884936 10.44372438 8.125 13.25 C8.10695313 14.14203125 8.08890625 15.0340625 8.0703125 15.953125 C8.04710937 16.62859375 8.02390625 17.3040625 8 18 C7.67 18 7.34 18 7 18 C7 15.69 7 13.38 7 11 C5.824375 10.7834375 5.824375 10.7834375 4.625 10.5625 C2 10 2 10 0 9 C0 11.97 0 14.94 0 18 C-0.33 18 -0.66 18 -1 18 C-1.05607422 16.96939453 -1.05607422 16.96939453 -1.11328125 15.91796875 C-1.17902344 15.01691406 -1.24476563 14.11585938 -1.3125 13.1875 C-1.37050781 12.29417969 -1.42851563 11.40085937 -1.48828125 10.48046875 C-1.85306113 8.0128301 -1.85306113 8.0128301 -3.10546875 6.17578125 C-6.2386707 4.23125798 -8.40617707 4.44532636 -12 5 C-14.19605159 7.00495438 -15.63409701 8.61951787 -17.3125 11 C-17.77688477 11.62430908 -18.24126953 12.24861816 -18.71972656 12.8918457 C-23.90263547 19.98540323 -28.4631289 27.48453911 -33 35 C-36.79823505 41.23300111 -40.79481603 47.23529003 -45.1875 53.0625 C-45.60386719 53.62348389 -46.02023437 54.18446777 -46.44921875 54.76245117 C-48.68031781 57.66439953 -50.49551455 59.78775661 -54 61 C-56.625 61.25 -56.625 61.25 -59 61 C-61 59 -61 59 -61.265625 56.71484375 C-61.23450467 51.18320551 -60.83368116 46.13906722 -59.4375 40.77734375 C-58.92032698 38.98139472 -58.92032698 38.98139472 -59 37 C-61.89050521 37.26079687 -61.89050521 37.26079687 -65 39 C-68.51169641 44.14858471 -70.55956103 49.97634613 -72 56 C-72.66 56 -73.32 56 -74 56 C-74.66 57.32 -75.32 58.64 -76 60 C-77.32 60 -78.64 60 -80 60 C-79.45908872 54.2663404 -78.26887853 49.03452138 -76.62109375 43.515625 C-75.84020207 40.78462868 -75.84020207 40.78462868 -76 37 C-76.598125 37.33 -77.19625 37.66 -77.8125 38 C-80 39 -80 39 -83 39 C-82.67773438 39.54914063 -82.35546875 40.09828125 -82.0234375 40.6640625 C-80.15158945 44.9364485 -80.45713743 49.4320101 -81 54 C-83.0023965 58.004793 -85.17998877 60.6587028 -89 63 C-92.65288193 64.21762731 -95.15754136 64.39075851 -99 64 C-102.47884669 61.99327106 -104.7062659 59.88120231 -106 56 C-107.00901306 43.61064288 -107.00901306 43.61064288 -104 39.1875 C-103.34 38.465625 -102.68 37.74375 -102 37 C-106.455 37.495 -106.455 37.495 -111 38 C-111.33 38.99 -111.66 39.98 -112 41 C-113.32 41 -114.64 41 -116 41 C-118 37.125 -118 37.125 -118 36 C-95.70420842 30.38426839 -95.70420842 30.38426839 -88.31640625 34.4921875 C-87.55199219 34.98976563 -86.78757812 35.48734375 -86 36 C-83 36.66666667 -83 36.66666667 -80 36 C-78.29220027 34.37550757 -76.62449243 32.70779973 -75 31 C-72.3125 30.0625 -72.3125 30.0625 -70 30 C-67.64046906 32.35953094 -67.50858587 33.77895617 -67 37 C-66.154375 36.154375 -65.30875 35.30875 -64.4375 34.4375 C-61.69019471 32.14590886 -61.13741835 32.00232912 -57.3125 31.9375 C-54 33 -54 33 -52.0625 34.5625 C-48.89896085 41.82003098 -51.98097091 49.78918181 -54 57 C-49.42058713 55.51535017 -47.68901157 51.78740643 -45.375 47.875 C-44.48580745 46.41398315 -43.59648084 44.95304788 -42.70703125 43.4921875 C-42.03148193 42.37021973 -42.03148193 42.37021973 -41.34228516 41.22558594 C-34.30145075 29.55147782 -27.02828979 18.02416465 -19 7 C-18.39671875 6.15566406 -17.7934375 5.31132812 -17.171875 4.44140625 C-12.49878007 -1.19579806 -6.94855582 -1.22394811 0 0 Z " fill="#C05D7E" transform="translate(735,337)"/>
<path d="M0 0 C4.875 0.875 4.875 0.875 6 2 C6.04080783 3.99958364 6.04254356 6.00045254 6 8 C6.43570313 7.566875 6.87140625 7.13375 7.3203125 6.6875 C10.26884379 3.93043178 12.15717368 2.16526006 16.1875 1.375 C19.78709917 2.17491093 20.9821365 2.89559462 23 6 C23.49257845 11.17207373 23.02116032 14.24432866 21 19 C20.54521808 21.66372269 20.27367827 24.30883034 20 27 C23.03044006 25.35490397 25.23161503 23.76838497 27.6875 21.3125 C28.450625 20.549375 29.21375 19.78625 30 19 C30.66 19 31.32 19 32 19 C30.60609461 22.15719572 28.96365028 24.2812653 26.5 26.6875 C25.8915625 27.28949219 25.283125 27.89148438 24.65625 28.51171875 C22.29162976 30.6365308 21.23121491 30.98554907 18 31.1875 C15 31 15 31 13 29 C12.26538641 23.59842945 13.18984966 19.09104783 15 14 C15.16798469 10.74955291 15.16798469 10.74955291 15 8 C12.525 7.505 12.525 7.505 10 7 C10 7.66 10 8.32 10 9 C9.34 9 8.68 9 8 9 C6.58145597 12.4647624 5.32955627 15.95601627 4.125 19.5 C2.63364127 23.6081666 1.2562293 26.95385001 -2 30 C-2.99 30 -3.98 30 -5 30 C-4.51172287 22.52165033 -3.66594452 15.31074682 -2 8 C-4.31 8.33 -6.62 8.66 -9 9 C-8.505 9.66 -8.01 10.32 -7.5 11 C-5.23788252 15.52423496 -5.15955477 19.46962727 -6.7265625 24.1875 C-8.14008059 27.31332863 -9.59339042 29.60571192 -12.0625 32 C-16.70005666 33.57874269 -21.16034377 33.66127435 -26 33 C-28.9644481 31.33990906 -30.53075982 30.41982996 -31.60546875 27.16796875 C-32.81830864 20.50335352 -32.70100912 14.11065987 -28.9296875 8.37109375 C-27.6875 6.6875 -27.6875 6.6875 -25 4 C-22.1875 3.625 -22.1875 3.625 -20 4 C-20 4.99 -20 5.98 -20 7 C-18.35 7.33 -16.7 7.66 -15 8 C-15 7.01 -15 6.02 -15 5 C-13.87851562 5.08701172 -13.87851562 5.08701172 -12.734375 5.17578125 C-9.75226371 5.3123963 -6.96519774 5.36265008 -4 5 C-1.25229728 2.7211176 -1.25229728 2.7211176 0 0 Z " fill="#C54771" transform="translate(773,367)"/>
<path d="M0 0 C3.9962674 0.72659407 4.97877829 1.47211332 7.4375 4.625 C8.6119231 11.18142501 7.99782972 17.95072451 4.4375 23.625 C-3.26433651 31.45283793 -3.26433651 31.45283793 -7.8046875 31.79296875 C-8.67351563 31.79941406 -9.54234375 31.80585938 -10.4375 31.8125 C-11.73300781 31.83376953 -11.73300781 31.83376953 -13.0546875 31.85546875 C-15.6866288 31.61359252 -17.30230544 30.95483541 -19.5625 29.625 C-19.5625 30.285 -19.5625 30.945 -19.5625 31.625 C-14.7581792 34.0271604 -9.83146105 34.23622229 -4.5625 34.625 C-4.5625 35.285 -4.5625 35.945 -4.5625 36.625 C-5.19414063 36.76035156 -5.82578125 36.89570313 -6.4765625 37.03515625 C-15.98961731 39.32432074 -27.33394948 42.76236942 -33.25 51.0625 C-33.64574219 51.74183594 -34.04148437 52.42117188 -34.44921875 53.12109375 C-34.81660156 53.61738281 -35.18398438 54.11367188 -35.5625 54.625 C-36.5525 54.625 -37.5425 54.625 -38.5625 54.625 C-39.305 55.285 -40.0475 55.945 -40.8125 56.625 C-44.26892203 59.13876147 -46.3846955 58.95267094 -50.5625 58.625 C-50.5625 58.295 -50.5625 57.965 -50.5625 57.625 C-49.68911987 57.42088501 -49.68911987 57.42088501 -48.7980957 57.21264648 C-42.40953038 55.45130384 -39.44075251 53.09981126 -35.75 47.6875 C-35.25137451 46.99237305 -34.75274902 46.29724609 -34.23901367 45.58105469 C-29.75825839 39.20823787 -25.80155396 32.5194787 -21.86767578 25.80053711 C-17.87037702 19.00380779 -13.48105346 12.79610434 -8.5625 6.625 C-8.09457031 5.94695312 -7.62664063 5.26890625 -7.14453125 4.5703125 C-4.91983708 1.44566115 -3.85133972 0.67567364 0 0 Z " fill="#FAF3F6" transform="translate(726.5625,340.375)"/>
<path d="M0 0 C2.81632068 4.79111127 2.5257209 9.59040816 2 15 C1.23321971 17.579573 0.27410455 19.61105397 -1 22 C-1.66 22 -2.32 22 -3 22 C-3.309375 22.8353125 -3.309375 22.8353125 -3.625 23.6875 C-6.05528993 27.7748058 -9.51385646 30.50461882 -14 32 C-19.3232961 32.50976619 -23.65894804 32.67052598 -28.5 30.25 C-32.27711889 26.850593 -34.1676676 24.89393624 -34.75 19.75 C-34.66342937 16.48736955 -34.17836744 15.2248173 -32.125 12.63671875 C-26.03774423 7 -26.03774423 7 -21 7 C-21 6.34 -21 5.68 -21 5 C-18.44013121 4.15774 -15.87760985 3.32601449 -13.3125 2.5 C-12.59126953 2.26152344 -11.87003906 2.02304687 -11.12695312 1.77734375 C-7.30592343 0.55601006 -4.06557944 -0.32075577 0 0 Z " fill="#FBF8FA" transform="translate(728,378)"/>
<path d="M0 0 C2.35465446 4.70930891 1.36415185 10.75759956 -0.0625 15.625 C-4.19307642 22.82019764 -8.43442638 27.66721192 -16.44921875 30.3671875 C-21.3580569 31.58500033 -25.40378157 32.18314751 -30.1171875 30.03515625 C-33.27681385 27.84625848 -34.75815022 26.13304963 -35.5703125 22.328125 C-35.74977645 17.90134768 -35.50200434 14.89245216 -33.3125 11 C-27.39300375 5.88043568 -20.24172558 3.66529782 -13 1 C-12.10667969 0.65066406 -11.21335937 0.30132812 -10.29296875 -0.05859375 C-9.51566406 -0.34863281 -8.73835937 -0.63867188 -7.9375 -0.9375 C-7.26589844 -1.19402344 -6.59429688 -1.45054687 -5.90234375 -1.71484375 C-3.33750254 -2.0993066 -2.13699002 -1.40168162 0 0 Z " fill="#FBF6F9" transform="translate(617,379)"/>
<path d="M0 0 C4.875 0.875 4.875 0.875 6 2 C6.04080783 3.99958364 6.04254356 6.00045254 6 8 C6.43570313 7.566875 6.87140625 7.13375 7.3203125 6.6875 C10.26884379 3.93043178 12.15717368 2.16526006 16.1875 1.375 C19.78709917 2.17491093 20.9821365 2.89559462 23 6 C23.49257845 11.17207373 23.02116032 14.24432866 21 19 C20.54521808 21.66372269 20.27367827 24.30883034 20 27 C23.03044006 25.35490397 25.23161503 23.76838497 27.6875 21.3125 C28.450625 20.549375 29.21375 19.78625 30 19 C30.66 19 31.32 19 32 19 C30.60609461 22.15719572 28.96365028 24.2812653 26.5 26.6875 C25.8915625 27.28949219 25.283125 27.89148438 24.65625 28.51171875 C22.29162976 30.6365308 21.23121491 30.98554907 18 31.1875 C15 31 15 31 13 29 C12.26538641 23.59842945 13.18984966 19.09104783 15 14 C15.16798469 10.74955291 15.16798469 10.74955291 15 8 C12.525 7.505 12.525 7.505 10 7 C10 7.66 10 8.32 10 9 C9.34 9 8.68 9 8 9 C6.58145597 12.4647624 5.32955627 15.95601627 4.125 19.5 C2.63364127 23.6081666 1.2562293 26.95385001 -2 30 C-2.99 30 -3.98 30 -5 30 C-4.51172287 22.52165033 -3.66594452 15.31074682 -2 8 C-3.32 8.33 -4.64 8.66 -6 9 C-6 8.67 -6 8.34 -6 8 C-8.97 7.505 -8.97 7.505 -12 7 C-12 6.67 -12 6.34 -12 6 C-10.7625 5.938125 -9.525 5.87625 -8.25 5.8125 C-4.69449876 5.39643071 -4.15360875 5.15744896 -1.5 2.4375 C-1.005 1.633125 -0.51 0.82875 0 0 Z " fill="#BE5578" transform="translate(773,367)"/>
<path d="M0 0 C0.66 1.32 1.32 2.64 2 4 C3.65 3.67 5.3 3.34 7 3 C7.63038724 11.27908576 7.2884948 17.36395604 2 24 C-4.71100323 31.06278969 -10.75071501 33.63446252 -20.47265625 34.203125 C-22.24962891 34.22632813 -22.24962891 34.22632813 -24.0625 34.25 C-25.84333984 34.28867187 -25.84333984 34.28867187 -27.66015625 34.328125 C-32.52533652 33.85014238 -35.00187153 32.05208136 -38.3125 28.5625 C-40.75466296 23.40682263 -40.32685212 18.61096131 -40 13 C-39.34 12.67 -38.68 12.34 -38 12 C-37.92523437 12.66386719 -37.85046875 13.32773437 -37.7734375 14.01171875 C-36.90321896 20.1659097 -36.90321896 20.1659097 -33.4375 25.125 C-28.1442458 28.01222957 -24.1709727 27.81306992 -18.41015625 26.3359375 C-10.5666403 23.62314251 -6.62057306 19.18682094 -2.6875 12.0625 C-0.80167717 8.06392961 -0.31356122 4.38985708 0 0 Z " fill="#C74771" transform="translate(619,382)"/>
<path d="M0 0 C0.99 0.33 1.98 0.66 3 1 C3 2.98 3 4.96 3 7 C4.65 6.67 6.3 6.34 8 6 C8.054348 8.0622048 8.09294961 10.12482816 8.125 12.1875 C8.14820313 13.33605469 8.17140625 14.48460937 8.1953125 15.66796875 C7.7208791 23.76180264 2.6235046 28.60143558 -3 34 C-10.60861539 39.07241026 -21.36000707 37.6306836 -30 36 C-29.0625 34.0625 -29.0625 34.0625 -27 32 C-25.078125 31.65234375 -25.078125 31.65234375 -22.8125 31.5 C-17.22046367 31.09082661 -12.42801362 29.52045069 -8.4609375 25.40234375 C-7.28734679 23.95079735 -6.14134535 22.47703516 -5 21 C-4.34 21 -3.68 21 -3 21 C-2.855625 20.030625 -2.71125 19.06125 -2.5625 18.0625 C-2 15 -2 15 -1 14 C-0.76472227 11.65012738 -0.58613583 9.29443961 -0.4375 6.9375 C-0.35371094 5.64714844 -0.26992188 4.35679687 -0.18359375 3.02734375 C-0.09271484 1.52880859 -0.09271484 1.52880859 0 0 Z " fill="#C64871" transform="translate(730,379)"/>
<path d="M0 0 C2.73431069 1.66478385 4.86541975 3.62510277 7 6 C6.67 7.65 6.34 9.3 6 11 C5.01 11 4.02 11 3 11 C1.98133771 9.34467377 0.98189187 7.67739862 0 6 C-0.99 5.67 -1.98 5.34 -3 5 C-3.33 5.66 -3.66 6.32 -4 7 C-4.495 6.505 -4.495 6.505 -5 6 C-8.32590266 5.46733812 -8.32590266 5.46733812 -12 6 C-14.12810055 7.78709928 -15.48728157 9.20607819 -17.125 11.375 C-17.58527588 11.95080811 -18.04555176 12.52661621 -18.51977539 13.11987305 C-23.47152473 19.40080665 -28.10550255 25.9344263 -32.7421875 32.44921875 C-37.20503097 38.71125372 -41.84332452 44.83881522 -46.4765625 50.97509766 C-48.0960267 53.12763549 -49.70522545 55.28756591 -51.3125 57.44921875 C-51.85640381 58.17931152 -52.40030762 58.9094043 -52.96069336 59.66162109 C-54.00236058 61.06035424 -55.04233114 62.46035308 -56.08032227 63.86181641 C-56.55010498 64.4913623 -57.0198877 65.1209082 -57.50390625 65.76953125 C-57.91455322 66.32229736 -58.3252002 66.87506348 -58.74829102 67.44458008 C-60.06669088 69.08287256 -61.48837829 70.54000134 -63 72 C-63.66 71.67 -64.32 71.34 -65 71 C-64.64397705 70.51869629 -64.2879541 70.03739258 -63.92114258 69.54150391 C-55.67244071 58.38405622 -47.49405684 47.17937907 -39.38525391 35.91992188 C-36.92491643 32.50996524 -34.44394818 29.11507066 -31.96484375 25.71875 C-30.46510685 23.64356733 -28.97968265 21.56087679 -27.50390625 19.46875 C-12.17951072 -2.23819493 -12.17951072 -2.23819493 0 0 Z " fill="#BF6C88" transform="translate(623,336)"/>
<path d="M0 0 C2.31 0.66 4.62 1.32 7 2 C7.58648443 8.3600978 7.32362648 12.87651084 3.578125 18.171875 C1.01073222 21.14598346 -1.87871249 23.62530288 -5 26 C-4.01 26.66 -3.02 27.32 -2 28 C-2 28.66 -2 29.32 -2 30 C-5.96 30.495 -5.96 30.495 -10 31 C-10 30.34 -10 29.68 -10 29 C-10.88042969 29.03480469 -11.76085937 29.06960938 -12.66796875 29.10546875 C-13.82941406 29.13253906 -14.99085938 29.15960938 -16.1875 29.1875 C-17.91033203 29.23970703 -17.91033203 29.23970703 -19.66796875 29.29296875 C-23.29157624 28.97436317 -25.14639144 28.21947332 -28 26 C-28 25.34 -28 24.68 -28 24 C-27.16082031 24.23783203 -27.16082031 24.23783203 -26.3046875 24.48046875 C-20.78487156 25.72476624 -15.68608644 25.87426704 -10.625 23.25 C-9.325625 22.13625 -9.325625 22.13625 -8 21 C-7.278125 20.4225 -6.55625 19.845 -5.8125 19.25 C-1.30669169 13.65658278 -0.4687459 6.98269752 0 0 Z " fill="#C34B73" transform="translate(735,346)"/>
<path d="M0 0 C0.33 0.99 0.66 1.98 1 3 C1.99 3.33 2.98 3.66 4 4 C3.34 4 2.68 4 2 4 C2 4.66 2 5.32 2 6 C6.8043208 8.4021604 11.73103895 8.61122229 17 9 C17 9.66 17 10.32 17 11 C16.05253906 11.20302734 16.05253906 11.20302734 15.0859375 11.41015625 C5.57288269 13.69932074 -5.77144948 17.13736942 -11.6875 25.4375 C-12.08324219 26.11683594 -12.47898437 26.79617188 -12.88671875 27.49609375 C-13.43779297 28.24052734 -13.43779297 28.24052734 -14 29 C-14.99 29 -15.98 29 -17 29 C-17.7425 29.66 -18.485 30.32 -19.25 31 C-22.70642203 33.51376147 -24.8221955 33.32767094 -29 33 C-29 32.67 -29 32.34 -29 32 C-28.42064697 31.86899902 -27.84129395 31.73799805 -27.24438477 31.60302734 C-20.65148119 29.81343746 -17.71503415 27.20098595 -13.9375 21.625 C-13.43508789 20.92052734 -12.93267578 20.21605469 -12.41503906 19.49023438 C-7.97394206 13.18472796 -3.87968377 6.66392742 0 0 Z " fill="#F8EBF1" transform="translate(705,366)"/>
<path d="M0 0 C0.36308044 5.10329727 0.58277658 8.87463833 -1.8125 13.5 C-4.40160034 16.45897181 -5.99289317 17.87143317 -9.9375 18.375 C-13 18 -13 18 -15.375 16.375 C-17.5268901 13.22992985 -17.6746862 11.74825668 -17 8 C-12.23780417 0.92473762 -8.28896792 -0.32505757 0 0 Z " fill="#F8EEF2" transform="translate(760,376)"/>
<path d="M0 0 C0.31240876 9.21605839 0.31240876 9.21605839 -2 13 C-5.44322148 16.04284689 -7.11337012 17.01477716 -11.75 16.9375 C-15 16 -15 16 -17 13 C-16.92493636 8.34605456 -16.59304105 5.94886568 -14.125 2 C-9.53144414 -0.93987575 -5.30921966 -0.41841486 0 0 Z " fill="#F9F0F4" transform="translate(648,377)"/>
<path d="M0 0 C1.65 0.33 3.3 0.66 5 1 C5 2.65 5 4.3 5 6 C5.66 6 6.32 6 7 6 C6.31063929 9.91121498 5.21749819 13.55508596 3.9375 17.3125 C3.39416016 18.91544922 3.39416016 18.91544922 2.83984375 20.55078125 C2.56269531 21.35902344 2.28554688 22.16726563 2 23 C1.34 23 0.68 23 0 23 C-0.66 24.32 -1.32 25.64 -2 27 C-3.32 27 -4.64 27 -6 27 C-5.47833929 20.47924108 -3.81439751 14.52815642 -1.9375 8.26953125 C-1.14830254 5.51720509 -0.50893163 2.81502809 0 0 Z " fill="#C64A73" transform="translate(661,370)"/>
<path d="M0 0 C1.65 0.33 3.3 0.66 5 1 C5.62460568 10.75078864 5.62460568 10.75078864 3.25 15.5 C-1.60186393 20.89095993 -1.60186393 20.89095993 -5.25390625 21.17578125 C-7.51161136 21.1863808 -9.74637414 21.13001688 -12 21 C-12.33 20.01 -12.66 19.02 -13 18 C-12.67 17.34 -12.34 16.68 -12 16 C-11.38125 15.87625 -10.7625 15.7525 -10.125 15.625 C-7.32605072 14.80177962 -6.65001489 13.32502098 -5 11 C-4.34 11 -3.68 11 -3 11 C-2.01 7.37 -1.02 3.74 0 0 Z " fill="#C6436E" transform="translate(649,379)"/>
<path d="M0 0 C1.875 0.1875 1.875 0.1875 4 1 C5.25 3.5625 5.25 3.5625 6 6 C6.99 6 7.98 6 9 6 C9.33 5.01 9.66 4.02 10 3 C11.59468098 4.59468098 11.28538976 6.22826282 11.375 8.4375 C11.32363511 14.39582749 9.39294294 19.13380551 6 24 C3.828125 25.78515625 3.828125 25.78515625 2 27 C2 25.68 2 24.36 2 23 C1.34 22.67 0.68 22.34 0 22 C0.16242187 21.29875 0.32484375 20.5975 0.4921875 19.875 C1.02526268 16.85697435 1.13281344 14.06286663 1.125 11 C1.12757813 9.989375 1.13015625 8.97875 1.1328125 7.9375 C1.00826727 5.18285256 0.62110865 2.68161197 0 0 Z " fill="#C74671" transform="translate(620,341)"/>
<path d="M0 0 C1.32 0 2.64 0 4 0 C4 1.65 4 3.3 4 5 C4.66 5 5.32 5 6 5 C2.8708827 18.83934808 2.8708827 18.83934808 -2 24 C-4.16015625 24.7109375 -4.16015625 24.7109375 -6 25 C-5.85833643 23.08302063 -5.71150416 21.16642277 -5.5625 19.25 C-5.48128906 18.18265625 -5.40007813 17.1153125 -5.31640625 16.015625 C-5.05909227 13.56320038 -4.68187782 11.36078709 -4 9 C-3.34 9 -2.68 9 -2 9 C-1.34 6.03 -0.68 3.06 0 0 Z " fill="#C6416D" transform="translate(774,372)"/>
<path d="M0 0 C0.99 0 1.98 0 3 0 C5.35723489 2.53184488 6 3.47190093 6 7 C6.66 7 7.32 7 8 7 C8.33 6.34 8.66 5.68 9 5 C8.41509121 11.14154225 7.45933748 17.00679849 6 23 C5.34 23 4.68 23 4 23 C4.7763932 26.0745356 4.7763932 26.0745356 7 28 C4.625 28.125 4.625 28.125 2 28 C0 26 0 26 -0.265625 23.71484375 C-0.23468201 18.21472816 0.14425769 13.27334731 1.66015625 7.97265625 C2.06015037 5.65085131 1.83019588 4.19646111 1 2 C0.34 1.67 -0.32 1.34 -1 1 C-0.67 0.67 -0.34 0.34 0 0 Z " fill="#C35479" transform="translate(674,370)"/>
<path d="M0 0 C0 1.32 0 2.64 0 4 C-2.475 3.505 -2.475 3.505 -5 3 C-5 2.01 -5 1.02 -5 0 C-10.94 1.32 -16.88 2.64 -23 4 C-22.01 5.65 -21.02 7.3 -20 9 C-18.85985611 12.25755397 -18.89661875 15.31597537 -18.9375 18.75 C-18.94652344 19.73484375 -18.95554687 20.7196875 -18.96484375 21.734375 C-18.97644531 22.48203125 -18.98804688 23.2296875 -19 24 C-19.33 24 -19.66 24 -20 24 C-20.33 21.03 -20.66 18.06 -21 15 C-22.32 15 -23.64 15 -25 15 C-25 13.02 -25 11.04 -25 9 C-25.66 9 -26.32 9 -27 9 C-27.66 9.66 -28.32 10.32 -29 11 C-29.33 10.01 -29.66 9.02 -30 8 C-31.670625 8.061875 -31.670625 8.061875 -33.375 8.125 C-37 8 -37 8 -39 6 C-38.01 6 -37.02 6 -36 6 C-36 5.34 -36 4.68 -36 4 C-35.01 4 -34.02 4 -33 4 C-33 4.66 -33 5.32 -33 6 C-30.36 5.67 -27.72 5.34 -25 5 C-25 4.34 -25 3.68 -25 3 C-25.99 2.67 -26.98 2.34 -28 2 C-7.35374868 -3.67687434 -7.35374868 -3.67687434 0 0 Z " fill="#C47591" transform="translate(758,371)"/>
<path d="M0 0 C2.74030367 1.65771457 4.86470352 3.6243059 7 6 C6.67 7.65 6.34 9.3 6 11 C5.01 11 4.02 11 3 11 C1.98133771 9.34467377 0.98189187 7.67739862 0 6 C-0.99 5.67 -1.98 5.34 -3 5 C-3.33 5.66 -3.66 6.32 -4 7 C-4.33 6.67 -4.66 6.34 -5 6 C-8.19904988 5.16046733 -8.19904988 5.16046733 -12 6 C-15.03588852 8.71854826 -17.53001125 11.76656018 -20 15 C-21 12 -21 12 -19.375 8.5625 C-14.76695523 0.99442648 -8.55705363 -1.41554836 0 0 Z " fill="#C15B7E" transform="translate(623,336)"/>
<path d="M0 0 C6.6 0 13.2 0 20 0 C20 2.97 20 5.94 20 9 C18.68 9 17.36 9 16 9 C15.67 8.34 15.34 7.68 15 7 C14.4225 7.165 13.845 7.33 13.25 7.5 C11 8 11 8 7 8 C6.34 6.35 5.68 4.7 5 3 C3.99983813 5.00032373 3.50603992 6.83125748 3 9 C2.01 9 1.02 9 0 9 C0 8.34 0 7.68 0 7 C0.66 7 1.32 7 2 7 C2 6.34 2 5.68 2 5 C1.34 5 0.68 5 0 5 C0 3.35 0 1.7 0 0 Z " fill="#E9CBD8" transform="translate(632,436)"/>
<path d="M0 0 C-0.639375 0.886875 -1.27875 1.77375 -1.9375 2.6875 C-5.04329921 7.99918488 -4.81939512 13.99488758 -5 20 C-5.66 20 -6.32 20 -7 20 C-7.33 20.66 -7.66 21.32 -8 22 C-8.33 19.03 -8.66 16.06 -9 13 C-10.32 13 -11.64 13 -13 13 C-13.66 9.7 -14.32 6.4 -15 3 C-13.02 3.99 -13.02 3.99 -11 5 C-11.33 4.01 -11.66 3.02 -12 2 C-7.82262526 0.40861915 -4.46839215 -0.21278058 0 0 Z " fill="#D899AF" transform="translate(634,373)"/>
<path d="M0 0 C-1.2065625 1.11375 -1.2065625 1.11375 -2.4375 2.25 C-6.57359763 6.68873892 -6.15329628 10.74473687 -6.1015625 16.58203125 C-5.99411555 19.14009523 -5.66015912 21.52440328 -5 24 C-5.99 24 -6.98 24 -8 24 C-8.2475 24.928125 -8.495 25.85625 -8.75 26.8125 C-10.06454245 30.16458325 -10.97963384 31.1877803 -14 33 C-13.71125 32.484375 -13.4225 31.96875 -13.125 31.4375 C-9.90573074 24.4624166 -8.32116738 16.35673761 -10.67578125 8.84375 C-11.40664297 7.20883658 -12.1991129 5.60177421 -13 4 C-13 3.01 -13 2.02 -13 1 C-11.58622218 0.63447197 -10.16879424 0.28304505 -8.75 -0.0625 C-7.96109375 -0.25972656 -7.1721875 -0.45695312 -6.359375 -0.66015625 C-3.89605178 -1.01497267 -2.34395868 -0.76877544 0 0 Z " fill="#F7E1EA" transform="translate(748,373)"/>
<path d="M0 0 C1.65 0 3.3 0 5 0 C4.83203125 1.8828125 4.83203125 1.8828125 4 4 C1.69921875 5.0546875 1.69921875 5.0546875 -1.3125 5.875 C-13.84650628 9.46132642 -13.84650628 9.46132642 -23 18 C-23.56689282 20.34852226 -23.56689282 20.34852226 -23.6875 22.75 C-23.75324219 23.54921875 -23.81898438 24.3484375 -23.88671875 25.171875 C-23.92410156 25.77515625 -23.96148438 26.3784375 -24 27 C-24.33 27 -24.66 27 -25 27 C-25.33 24.69 -25.66 22.38 -26 20 C-26.33 22.97 -26.66 25.94 -27 29 C-27.33 29 -27.66 29 -28 29 C-28.55366615 24.71128442 -28.85857203 20.77060825 -26.93359375 16.80078125 C-20.40468822 8.47192682 -9.4491432 5.01347537 0 1 C0 0.67 0 0.34 0 0 Z " fill="#C26A87" transform="translate(606,375)"/>
<path d="M0 0 C2.31 0.66 4.62 1.32 7 2 C7.02698189 3.62490954 7.04638757 5.24994633 7.0625 6.875 C7.07410156 7.77992188 7.08570313 8.68484375 7.09765625 9.6171875 C7 12 7 12 6 14 C5.01 14 4.02 14 3 14 C3 14.99 3 15.98 3 17 C2.34 17 1.68 17 1 17 C1 17.66 1 18.32 1 19 C0.01 18.67 -0.98 18.34 -2 18 C-1.34 12.06 -0.68 6.12 0 0 Z " fill="#C93E6B" transform="translate(735,346)"/>
<path d="M0 0 C2.00546689 0.29868656 4.00577205 0.63371323 6 1 C6.99 0.67 7.98 0.34 9 0 C9.33 2.64 9.66 5.28 10 8 C6.32589215 9.17571451 2.83070817 9.07366746 -1 9 C-1.625 5.625 -1.625 5.625 -2 2 C-1.34 1.34 -0.68 0.68 0 0 Z " fill="#DFC0CE" transform="translate(688,436)"/>
<path d="M0 0 C-1 2 -1 2 -3.1796875 2.8515625 C-4.06914063 3.10679687 -4.95859375 3.36203125 -5.875 3.625 C-7.20144531 4.01558594 -7.20144531 4.01558594 -8.5546875 4.4140625 C-11 5 -11 5 -14 5 C-14 5.66 -14 6.32 -14 7 C-15.051875 7.391875 -16.10375 7.78375 -17.1875 8.1875 C-20.96380438 9.83436702 -23.44445628 11.69282577 -26 15 C-26.88527109 18.68441504 -26.88527109 18.68441504 -27 22 C-27.33 22 -27.66 22 -28 22 C-28.59732819 19.23735711 -29 16.83967231 -29 14 C-22.77846869 4.76805031 -11.04272161 -0.37200658 0 0 Z " fill="#BB6C87" transform="translate(721,378)"/>
<path d="M0 0 C3.63 0 7.26 0 11 0 C11.33 2.31 11.66 4.62 12 7 C10.68 7.33 9.36 7.66 8 8 C8 7.34 8 6.68 8 6 C7.34 6 6.68 6 6 6 C6 6.66 6 7.32 6 8 C1.125 7.125 1.125 7.125 0 6 C-0.04080783 4.00041636 -0.04254356 1.99954746 0 0 Z " fill="#F4E2EB" transform="translate(726,437)"/>
<path d="M0 0 C-0.58359075 8.31616812 -2.73799414 16.01459326 -5 24 C-5.99 23.34 -6.98 22.68 -8 22 C-7.83757813 21.4534375 -7.67515625 20.906875 -7.5078125 20.34375 C-6.92864008 17.6706465 -6.86748882 15.2340694 -6.875 12.5 C-6.87242187 11.5615625 -6.86984375 10.623125 -6.8671875 9.65625 C-6.98607132 7.2785737 -7.32448278 5.27316904 -8 3 C-1.125 0 -1.125 0 0 0 Z " fill="#FAEAF2" transform="translate(660,373)"/>
<path d="M0 0 C-0.8125 2.4375 -0.8125 2.4375 -2 5 C-7.81109182 6.93703061 -14.06636277 6.21715636 -20 5 C-19.0625 3.0625 -19.0625 3.0625 -17 1 C-11.51527291 -0.39347741 -5.61917853 -0.10216688 0 0 Z " fill="#C83D6A" transform="translate(720,410)"/>
<path d="M0 0 C2 2 2 2 2.23046875 4.64453125 C2.20919922 6.21267578 2.20919922 6.21267578 2.1875 7.8125 C2.17783203 9.36904297 2.17783203 9.36904297 2.16796875 10.95703125 C2 14 2 14 1.42578125 16.82421875 C1.28527344 17.54222656 1.14476562 18.26023437 1 19 C1.33 19.33 1.66 19.66 2 20 C2.375 22.3125 2.375 22.3125 2 25 C-2.10810811 29 -2.10810811 29 -5 29 C-5 28.01 -5 27.02 -5 26 C-5.99 26.66 -6.98 27.32 -8 28 C-10.1875 27.625 -10.1875 27.625 -12 27 C-10.4221875 26.319375 -10.4221875 26.319375 -8.8125 25.625 C-3.79615093 22.69879638 -1.6096346 18.47420778 0 13 C0.37601873 8.62757704 0.3085423 4.37444413 0 0 Z " fill="#C74E74" transform="translate(620,344)"/>
<path d="M0 0 C4.29 0 8.58 0 13 0 C12.34 2.64 11.68 5.28 11 8 C10.01 8 9.02 8 8 8 C7.67 7.34 7.34 6.68 7 6 C6.34 6 5.68 6 5 6 C5 6.66 5 7.32 5 8 C3.35 8 1.7 8 0 8 C0 5.36 0 2.72 0 0 Z " fill="#EAD0DB" transform="translate(709,436)"/>
<path d="M0 0 C0.66 0.66 1.32 1.32 2 2 C1.67 2.99 1.34 3.98 1 5 C0.29875 4.649375 -0.4025 4.29875 -1.125 3.9375 C-4.63242943 2.79377301 -6.39617104 3.2520355 -10 4 C-13.32896966 4.37931288 -16.66390654 4.69012571 -20 5 C-20.33 5.99 -20.66 6.98 -21 8 C-22.32 8 -23.64 8 -25 8 C-27 4.125 -27 4.125 -27 3 C-18.0395203 0.74308757 -9.28923362 -1.09704139 0 0 Z " fill="#C26A89" transform="translate(644,370)"/>
<path d="M0 0 C1.37432457 3.81756824 0.67975039 7.07255329 0 11 C0.66 11 1.32 11 2 11 C2 10.34 2 9.68 2 9 C2.99 9 3.98 9 5 9 C5.33 7.68 5.66 6.36 6 5 C6 6.65 6 8.3 6 10 C9.03044006 8.35490397 11.23161503 6.76838497 13.6875 4.3125 C14.450625 3.549375 15.21375 2.78625 16 2 C16.66 2 17.32 2 18 2 C16.60609461 5.15719572 14.96365028 7.2812653 12.5 9.6875 C11.8915625 10.28949219 11.283125 10.89148438 10.65625 11.51171875 C8.29162976 13.6365308 7.23121491 13.98554907 4 14.1875 C1 14 1 14 -1 12 C-1.23046875 9.94140625 -1.23046875 9.94140625 -1.1875 7.5625 C-1.18105469 6.78003906 -1.17460938 5.99757813 -1.16796875 5.19140625 C-1 3 -1 3 0 0 Z " fill="#C36A88" transform="translate(787,384)"/>
<path d="M0 0 C-0.62272232 7.4071181 -1.70487966 14.68194135 -3 22 C-4.65 22 -6.3 22 -8 22 C-6.125 16.25 -6.125 16.25 -5 14 C-4.7569164 9.05730019 -4.74504879 5.50990242 -7 1 C-2.25 0 -2.25 0 0 0 Z " fill="#FAE8F1" transform="translate(771,375)"/>
<path d="M0 0 C1.65 0.33 3.3 0.66 5 1 C5.66 3.31 6.32 5.62 7 8 C6.01 8.495 6.01 8.495 5 9 C5 7.68 5 6.36 5 5 C3.68 5 2.36 5 1 5 C0.87625 6.11375 0.7525 7.2275 0.625 8.375 C0 12 0 12 -2 14 C-2 12.02 -2 10.04 -2 8 C-3.32 8.33 -4.64 8.66 -6 9 C-6 8.67 -6 8.34 -6 8 C-8.97 7.505 -8.97 7.505 -12 7 C-12 6.67 -12 6.34 -12 6 C-10.7625 5.938125 -9.525 5.87625 -8.25 5.8125 C-4.69449876 5.39643071 -4.15360875 5.15744896 -1.5 2.4375 C-1.005 1.633125 -0.51 0.82875 0 0 Z " fill="#C15C7F" transform="translate(773,367)"/>
<path d="M0 0 C0.33 0 0.66 0 1 0 C1 3.63 1 7.26 1 11 C0.34 11 -0.32 11 -1 11 C-1 11.99 -1 12.98 -1 14 C-2.8125 14.6875 -2.8125 14.6875 -5 15 C-6.75 13.5625 -6.75 13.5625 -8 12 C-6.51272258 7.09198451 -3.55364515 3.59508707 0 0 Z " fill="#CB3A69" transform="translate(736,388)"/>
<path d="M0 0 C0.66015625 1.73828125 0.66015625 1.73828125 1 4 C-0.00390625 6.04296875 -0.00390625 6.04296875 -1.5625 8.1875 C-2.11550781 8.96609375 -2.66851563 9.7446875 -3.23828125 10.546875 C-3.81964844 11.35640625 -4.40101563 12.1659375 -5 13 C-6.08884485 14.64219224 -7.17243039 16.28788726 -8.25 17.9375 C-9.74627928 20.21811923 -11.06580704 22.06580704 -13 24 C-13.6875 22.32421875 -13.6875 22.32421875 -14 20 C-12.8125 17.51953125 -12.8125 17.51953125 -11 14.8125 C-10.35933594 13.8534375 -9.71867188 12.894375 -9.05859375 11.90625 C-6.17062149 7.82911269 -3.14999256 3.87765042 0 0 Z " fill="#C56C8A" transform="translate(718,342)"/>
<path d="M0 0 C2.97 0 5.94 0 9 0 C9 0.66 9 1.32 9 2 C8.34 2 7.68 2 7 2 C7.99 3.485 7.99 3.485 9 5 C8.625 7.1875 8.625 7.1875 8 9 C5.36 9 2.72 9 0 9 C0 6.03 0 3.06 0 0 Z " fill="#E2C3D1" transform="translate(663,436)"/>
<path d="M0 0 C1.65 0 3.3 0 5 0 C4.34 3.96 3.68 7.92 3 12 C2.34 12 1.68 12 1 12 C1.7763932 15.0745356 1.7763932 15.0745356 4 17 C2.35 17 0.7 17 -1 17 C-2.13253652 10.77104914 -1.70366626 6.08251096 0 0 Z " fill="#C5436F" transform="translate(677,381)"/>
<path d="M0 0 C-0.50660156 0.90492188 -0.50660156 0.90492188 -1.0234375 1.828125 C-1.46945312 2.62734375 -1.91546875 3.4265625 -2.375 4.25 C-2.81585937 5.03890625 -3.25671875 5.8278125 -3.7109375 6.640625 C-4.85518821 8.73495054 -5.93271286 10.86542573 -7 13 C-8.65 9.37 -10.3 5.74 -12 2 C-7.82262526 0.40861915 -4.46839215 -0.21278058 0 0 Z " fill="#F9EBF2" transform="translate(634,373)"/>
<path d="M0 0 C0.66 0 1.32 0 2 0 C3.20220203 3.53094302 2.79532349 6.12898982 2.0625 9.75 C1.86785156 10.73484375 1.67320312 11.7196875 1.47265625 12.734375 C1.31667969 13.48203125 1.16070313 14.2296875 1 15 C0.01 15 -0.98 15 -2 15 C-2 15.66 -2 16.32 -2 17 C-2.66 17 -3.32 17 -4 17 C-4.56131481 10.54487966 -2.63463787 5.84560277 0 0 Z " fill="#C53D69" transform="translate(791,378)"/>
<path d="M0 0 C6.35470441 0.47960033 6.35470441 0.47960033 8.9375 2.5625 C12.10103915 9.82003098 9.01902909 17.78918181 7 25 C7.66 25.33 8.32 25.66 9 26 C8.34 26 7.68 26 7 26 C7 26.66 7 27.32 7 28 C6.01 27.67 5.02 27.34 4 27 C4 26.01 4 25.02 4 24 C4.66 24 5.32 24 6 24 C6.09087891 23.14728516 6.09087891 23.14728516 6.18359375 22.27734375 C6.70176573 17.50218963 7.29243859 12.7507695 8 8 C7.34 8 6.68 8 6 8 C3 3.61538462 3 3.61538462 3 1 C2.01 0.67 1.02 0.34 0 0 Z " fill="#E0ACC1" transform="translate(674,369)"/>
<path d="M0 0 C6.66287016 1.92482916 6.66287016 1.92482916 9 5 C10.00496852 8.01490557 10.10335303 10.04181692 10.0625 13.1875 C10.05347656 14.08855469 10.04445313 14.98960937 10.03515625 15.91796875 C10.02355469 16.60503906 10.01195312 17.29210937 10 18 C9.67 18 9.34 18 9 18 C9 15.69 9 13.38 9 11 C8.401875 10.938125 7.80375 10.87625 7.1875 10.8125 C4.1267611 9.67565412 3.56360154 7.7872897 2 5 C1.01 4.34 0.02 3.68 -1 3 C-0.67 2.01 -0.34 1.02 0 0 Z " fill="#C47B94" transform="translate(733,337)"/>
<path d="M0 0 C0.33 0 0.66 0 1 0 C1.3690205 10.55808656 1.3690205 10.55808656 -1 15 C-1.66 15 -2.32 15 -3 15 C-3 15.66 -3 16.32 -3 17 C-5.70879335 18.35439668 -8.00933268 18.06501451 -11 18 C-11 18.66 -11 19.32 -11 20 C-12.65 20.33 -14.3 20.66 -16 21 C-16.66 19.68 -17.32 18.36 -18 17 C-16.68 16.34 -15.36 15.68 -14 15 C-13.67 15.33 -13.34 15.66 -13 16 C-10.16926564 16.50169415 -10.16926564 16.50169415 -7 16 C-2.65504437 12.33092636 -0.99183254 9.91832537 -0.4375 4.375 C-0.35371094 3.55773437 -0.26992188 2.74046875 -0.18359375 1.8984375 C-0.09271484 0.95871094 -0.09271484 0.95871094 0 0 Z " fill="#C76082" transform="translate(760,377)"/>
<path d="M0 0 C2 3 2 3 2 5 C1.34 5 0.68 5 0 5 C0 5.99 0 6.98 0 8 C-1.62490954 8.02698189 -3.24994633 8.04638757 -4.875 8.0625 C-6.23238281 8.07990234 -6.23238281 8.07990234 -7.6171875 8.09765625 C-10 8 -10 8 -12 7 C-12 6.34 -12 5.68 -12 5 C-10.68 5 -9.36 5 -8 5 C-8 4.34 -8 3.68 -8 3 C-5.36 2.67 -2.72 2.34 0 2 C0 1.34 0 0.68 0 0 Z " fill="#C3416C" transform="translate(757,392)"/>
<path d="M0 0 C0.53067341 2.10170656 1.04922857 4.20647598 1.5625 6.3125 C1.85253906 7.48425781 2.14257812 8.65601563 2.44140625 9.86328125 C3 13 3 13 2 16 C0 15 0 15 -3 13 C-3.29296875 10.1796875 -3.29296875 10.1796875 -3.1875 6.875 C-3.16042969 5.77929688 -3.13335938 4.68359375 -3.10546875 3.5546875 C-3.07066406 2.71164062 -3.03585937 1.86859375 -3 1 C-1 0 -1 0 0 0 Z " fill="#C04C73" transform="translate(693,394)"/>
<path d="M0 0 C1.65 0 3.3 0 5 0 C4.859375 1.8671875 4.859375 1.8671875 4 4 C1.453125 5.1953125 1.453125 5.1953125 -1.75 6.125 C-5.58640024 7.26836066 -9.30515246 8.45363788 -13 10 C-13.33 9.01 -13.66 8.02 -14 7 C-13.07316406 6.66226562 -12.14632812 6.32453125 -11.19140625 5.9765625 C-9.99386719 5.53054688 -8.79632812 5.08453125 -7.5625 4.625 C-6.36753906 4.18414062 -5.17257812 3.74328125 -3.94140625 3.2890625 C-0.89803102 2.32914764 -0.89803102 2.32914764 0 0 Z " fill="#C37792" transform="translate(606,375)"/>
<path d="M0 0 C0.33 0 0.66 0 1 0 C1.66 4.62 2.32 9.24 3 14 C2.01 14 1.02 14 0 14 C-0.2475 14.928125 -0.495 15.85625 -0.75 16.8125 C-2.06454245 20.16458325 -2.97963384 21.1877803 -6 23 C-5.71125 22.484375 -5.4225 21.96875 -5.125 21.4375 C-2.52865637 15.8120888 -1.70464302 10.24758963 -1.24609375 4.13671875 C-1 2 -1 2 0 0 Z " fill="#F1C7D7" transform="translate(740,383)"/>
<path d="M0 0 C1.37217815 3.70488102 0.43993222 5.4425204 -1 9 C-1.16670273 12.04173894 -1.16670273 12.04173894 -1 15 C-1 16.32 -1 17.64 -1 19 C-1.66 19 -2.32 19 -3 19 C-5.19613633 14.60772734 -4.46337435 8.58871204 -3.125 4 C-2 2 -2 2 0 0 Z " fill="#C05E7F" transform="translate(745,375)"/>
<path d="M0 0 C2.475 0.495 2.475 0.495 5 1 C5.625 3.3125 5.625 3.3125 6 6 C5.01 7.485 5.01 7.485 4 9 C2.68 9 1.36 9 0 9 C0 6.03 0 3.06 0 0 Z " fill="#CC9AAE" transform="translate(655,436)"/>
<path d="M0 0 C0.94842031 2.54245205 1.18742484 3.58934151 0.0390625 6.10546875 C-0.66089844 7.13607422 -0.66089844 7.13607422 -1.375 8.1875 C-1.83648438 8.88230469 -2.29796875 9.57710938 -2.7734375 10.29296875 C-4 12 -4 12 -5 13 C-3.68 13.66 -2.36 14.32 -1 15 C-4.67410785 16.17571451 -8.16929183 16.07366746 -12 16 C-11.2575 15.278125 -10.515 14.55625 -9.75 13.8125 C-5.54068709 9.50752089 -2.54568784 5.47322886 0 0 Z " fill="#EDCBD8" transform="translate(629,357)"/>
<path d="M0 0 C0.33 0.66 0.66 1.32 1 2 C1.66 2.33 2.32 2.66 3 3 C1.71937515 4.7074998 0.38232443 6.37373596 -1 8 C-1.66 8 -2.32 8 -3 8 C-3.721875 8.66 -4.44375 9.32 -5.1875 10 C-8.68663481 12.48827365 -10.79958306 12.32944447 -15 12 C-15 11.67 -15 11.34 -15 11 C-14.12988281 10.814375 -14.12988281 10.814375 -13.2421875 10.625 C-6.48882091 8.84193291 -3.57831573 5.90772911 0 0 Z " fill="#F4DCE6" transform="translate(691,387)"/>
<path d="M0 0 C2.475 0.495 2.475 0.495 5 1 C5.66 2.98 6.32 4.96 7 7 C8.32 5.68 9.64 4.36 11 3 C11.66 3.33 12.32 3.66 13 4 C13.33 4.99 13.66 5.98 14 7 C13.21625 7.309375 12.4325 7.61875 11.625 7.9375 C9.07669872 8.92875038 9.07669872 8.92875038 7 10 C6.34 9.67 5.68 9.34 5 9 C5 7.35 5 5.7 5 4 C4.360625 3.896875 3.72125 3.79375 3.0625 3.6875 C2.381875 3.460625 1.70125 3.23375 1 3 C0.67 2.01 0.34 1.02 0 0 Z " fill="#C06685" transform="translate(661,367)"/>
<path d="M0 0 C3.53458886 -0.53787222 5.3326044 -0.42151301 8.375 1.5 C10.73613198 5.13251074 10.2854378 7.71843297 10 12 C9.34 10.68 8.68 9.36 8 8 C7.34 8 6.68 8 6 8 C5.67 6.68 5.34 5.36 5 4 C2.69 3.67 0.38 3.34 -2 3 C-1.34 2.01 -0.68 1.02 0 0 Z " fill="#D18CA5" transform="translate(786,369)"/>
<path d="M0 0 C0 0.99 0 1.98 0 3 C2.97 3.495 2.97 3.495 6 4 C3.7311729 5.42852077 2.50949198 6.07278457 -0.1875 5.6875 C-1.115625 5.460625 -2.04375 5.23375 -3 5 C-5.99477074 4.61683068 -8.99659689 4.30753801 -12 4 C-8.36043372 1.57362248 -4.44144233 0 0 0 Z " fill="#C43D6A" transform="translate(615,370)"/>
<path d="M0 0 C7.26153846 -0.61538462 7.26153846 -0.61538462 11 2.5 C11.66 3.325 12.32 4.15 13 5 C12.67 5.66 12.34 6.32 12 7 C11.34 6.67 10.68 6.34 10 6 C10 8.97 10 11.94 10 15 C9.67 15 9.34 15 9 15 C8.96261719 14.31292969 8.92523437 13.62585938 8.88671875 12.91796875 C8.82097656 12.01691406 8.75523437 11.11585938 8.6875 10.1875 C8.62949219 9.29417969 8.57148437 8.40085937 8.51171875 7.48046875 C7.92794483 4.65072495 7.2863703 3.71477773 5 2 C2.39388923 1.27802838 2.39388923 1.27802838 0 1 C0 0.67 0 0.34 0 0 Z " fill="#C76586" transform="translate(725,340)"/>
<path d="M0 0 C1.65 0 3.3 0 5 0 C5 0.66 5 1.32 5 2 C5.66 2 6.32 2 7 2 C7.33 1.34 7.66 0.68 8 0 C7.67 2.31 7.34 4.62 7 7 C5 7 3 7 1 7 C0.67 4.69 0.34 2.38 0 0 Z " fill="#C2819A" transform="translate(638,437)"/>
<path d="M0 0 C2.475 0.495 2.475 0.495 5 1 C5 3.31 5 5.62 5 8 C3.35 8 1.7 8 0 8 C0 5.36 0 2.72 0 0 Z " fill="#CB96AB" transform="translate(709,436)"/>
<path d="M0 0 C0.66 0 1.32 0 2 0 C2 0.99 2 1.98 2 3 C2.66 3 3.32 3 4 3 C4 2.01 4 1.02 4 0 C4.66 0 5.32 0 6 0 C6 2.64 6 5.28 6 8 C5.34 8 4.68 8 4 8 C4 7.01 4 6.02 4 5 C3.34 5 2.68 5 2 5 C2 6.32 2 7.64 2 9 C1.34 9 0.68 9 0 9 C0 6.03 0 3.06 0 0 Z " fill="#C68BA1" transform="translate(674,436)"/>
<path d="M0 0 C1.5 1.375 1.5 1.375 3 3 C3 3.66 3 4.32 3 5 C3.66 5.33 4.32 5.66 5 6 C5 6.66 5 7.32 5 8 C4.01 8 3.02 8 2 8 C2 8.66 2 9.32 2 10 C-0.99324263 8.9024777 -1.84610901 8.32317108 -3.25 5.375 C-3.4975 4.59125 -3.745 3.8075 -4 3 C-1 4 -1 4 0 6 C0 4.02 0 2.04 0 0 Z " fill="#CD7191" transform="translate(695,404)"/>
<path d="M0 0 C0.66 1.32 1.32 2.64 2 4 C3.65 3.67 5.3 3.34 7 3 C7 5.31 7 7.62 7 10 C6.34 10 5.68 10 5 10 C5 9.01 5 8.02 5 7 C4.01 7 3.02 7 2 7 C2 7.66 2 8.32 2 9 C1.34 9 0.68 9 0 9 C0 6.03 0 3.06 0 0 Z " fill="#C3436D" transform="translate(619,382)"/>
<path d="M0 0 C0.66 1.32 1.32 2.64 2 4 C0.76238177 5.65516419 -0.49057455 7.29886798 -1.75 8.9375 C-2.44609375 9.85402344 -3.1421875 10.77054687 -3.859375 11.71484375 C-6.01029035 14.01098513 -6.93617261 14.67567593 -10 15 C-10 14.34 -10 13.68 -10 13 C-8.81965023 11.85337451 -7.63751554 10.70851479 -6.4453125 9.57421875 C-3.82000256 6.71475954 -1.9484671 3.3414138 0 0 Z " fill="#B96D89" transform="translate(691,382)"/>
<path d="M0 0 C0 2.64 0 5.28 0 8 C-1.65 8.33 -3.3 8.66 -5 9 C-5 6.36 -5 3.72 -5 1 C-1.125 0 -1.125 0 0 0 Z " fill="#C987A0" transform="translate(706,436)"/>
<path d="M0 0 C2.02907167 3.3146667 2.12742133 5.4315979 1.625 9.25 C1.51414062 10.14203125 1.40328125 11.0340625 1.2890625 11.953125 C1.19367187 12.62859375 1.09828125 13.3040625 1 14 C-0.65 14 -2.3 14 -4 14 C-3.566875 12.7625 -3.566875 12.7625 -3.125 11.5 C-1.90101549 7.69204819 -0.9383118 3.88729173 0 0 Z " fill="#F3D1DE" transform="translate(767,383)"/>
<path d="M0 0 C1.875 0.1875 1.875 0.1875 4 1 C5.25 3.5625 5.25 3.5625 6 6 C5.34 6 4.68 6 4 6 C3.67 9.3 3.34 12.6 3 16 C2.67 16 2.34 16 2 16 C1.93941406 15.26394531 1.87882813 14.52789062 1.81640625 13.76953125 C1.73261719 12.79371094 1.64882813 11.81789063 1.5625 10.8125 C1.48128906 9.84957031 1.40007813 8.88664062 1.31640625 7.89453125 C1.02333849 5.21350398 0.57296246 2.6337014 0 0 Z " fill="#C24F76" transform="translate(620,341)"/>
<path d="M0 0 C0.33 0 0.66 0 1 0 C1.07654536 4.51617599 1.10228696 8.59085217 0 13 C0.99 13.33 1.98 13.66 3 14 C2.34 14.66 1.68 15.32 1 16 C0.01 16 -0.98 16 -2 16 C-1.85833643 14.08302063 -1.71150416 12.16642277 -1.5625 10.25 C-1.48128906 9.18265625 -1.40007813 8.1153125 -1.31640625 7.015625 C-1.05909227 4.56320038 -0.68187782 2.36078709 0 0 Z " fill="#C56284" transform="translate(770,381)"/>
<path d="M0 0 C0.66 0.33 1.32 0.66 2 1 C0.84826645 3.46800047 -0.04783565 5.04783565 -2 7 C-2.40047444 9.32275177 -2.7397104 11.65739357 -3 14 C-3.33 14 -3.66 14 -4 14 C-4.59732819 11.23735711 -5 8.83967231 -5 6 C-3.51448079 3.81947002 -1.75825803 1.97804029 0 0 Z " fill="#C4738F" transform="translate(697,386)"/>
<path d="M0 0 C0.66 0 1.32 0 2 0 C1.67 2.31 1.34 4.62 1 7 C0.34 6.67 -0.32 6.34 -1 6 C-2.34187818 6.6492959 -3.67479497 7.31731862 -5 8 C-5.99 8 -6.98 8 -8 8 C-8.33 8.66 -8.66 9.32 -9 10 C-9.33 8.68 -9.66 7.36 -10 6 C-8.63875 5.62875 -8.63875 5.62875 -7.25 5.25 C-3.87227303 3.95087424 -2.42480947 2.59801015 0 0 Z " fill="#BE6282" transform="translate(660,368)"/>
<path d="M0 0 C0.66 0 1.32 0 2 0 C2.33 2.64 2.66 5.28 3 8 C1.35 8.33 -0.3 8.66 -2 9 C-1.125 1.125 -1.125 1.125 0 0 Z " fill="#C1889E" transform="translate(695,436)"/>
<path d="M0 0 C0.33 0 0.66 0 1 0 C1.66 4.29 2.32 8.58 3 13 C1.68 13 0.36 13 -1 13 C-1.02686553 11.02090602 -1.04633375 9.04171029 -1.0625 7.0625 C-1.07410156 5.96035156 -1.08570313 4.85820312 -1.09765625 3.72265625 C-1 1 -1 1 0 0 Z " fill="#C0436D" transform="translate(580,394)"/>
<path d="M0 0 C1.67542976 0.28604898 3.34385343 0.61781233 5 1 C4.67 2.32 4.34 3.64 4 5 C4 4.01 4 3.02 4 2 C3.01 2 2.02 2 1 2 C0.87625 2.969375 0.7525 3.93875 0.625 4.9375 C0.00136191 9.34815777 -0.98746506 13.66477759 -2 18 C-2.33 18 -2.66 18 -3 18 C-1.43333333 1.43333333 -1.43333333 1.43333333 0 0 Z " fill="#BA466C" transform="translate(661,370)"/>
<path d="M0 0 C2.0625 0.4375 2.0625 0.4375 4 1 C4 2.65 4 4.3 4 6 C2.68 6.33 1.36 6.66 0 7 C-0.38133299 5.0085944 -0.71325582 3.00720923 -1 1 C-0.67 0.67 -0.34 0.34 0 0 Z " fill="#CB99AD" transform="translate(734,438)"/>
<path d="M0 0 C0.99 0.33 1.98 0.66 3 1 C3.33 3.31 3.66 5.62 4 8 C2.02 8 0.04 8 -2 8 C-1.34 5.36 -0.68 2.72 0 0 Z " fill="#C3899D" transform="translate(622,436)"/>
<path d="M0 0 C4.25177923 0.47241991 6.29969203 2.84964071 9 6 C9 6.99 9 7.98 9 9 C8.01 9 7.02 9 6 9 C4.61876037 7.03277992 3.28511874 5.03131672 2 3 C1.34 2.67 0.68 2.34 0 2 C0 1.34 0 0.68 0 0 Z " fill="#F1C9DB" transform="translate(620,338)"/>
<path d="M0 0 C8.39763447 -0.91241904 8.39763447 -0.91241904 12.22265625 1.265625 C13.99171805 2.76224402 15.57182113 4.17457933 17 6 C17 6.66 17 7.32 17 8 C16.01 7.67 15.02 7.34 14 7 C14 6.34 14 5.68 14 5 C10.9530371 3.30566082 8.17178534 2.50532888 4.75 1.875 C3.85796875 1.70742188 2.9659375 1.53984375 2.046875 1.3671875 C1.03367187 1.18542969 1.03367187 1.18542969 0 1 C0 0.67 0 0.34 0 0 Z " fill="#C88EA3" transform="translate(613,336)"/>
<path d="M0 0 C0.99 0 1.98 0 3 0 C3 2.97 3 5.94 3 9 C2.01 9 1.02 9 0 9 C-1.125 2.25 -1.125 2.25 0 0 Z " fill="#F5E2EC" transform="translate(652,436)"/>
<path d="M0 0 C-1.65091778 4.29238623 -4.73754566 6.8793915 -8 10 C-8.99 9.67 -9.98 9.34 -11 9 C-9.54782324 7.49403892 -8.08807139 5.99537896 -6.625 4.5 C-5.40683594 3.24703125 -5.40683594 3.24703125 -4.1640625 1.96875 C-2 0 -2 0 0 0 Z " fill="#B67089" transform="translate(805,386)"/>
<path d="M0 0 C0.33 0 0.66 0 1 0 C1.33278764 6.81598387 1.24201565 11.92122066 -2 18 C-2.99 18 -3.98 18 -5 18 C-5 17.34 -5 16.68 -5 16 C-4.34 16 -3.68 16 -3 16 C-2.7834375 14.5459375 -2.7834375 14.5459375 -2.5625 13.0625 C-2 10 -2 10 -1 9 C-0.76807135 7.48530552 -0.58784762 5.96245438 -0.4375 4.4375 C-0.35371094 3.61121094 -0.26992188 2.78492188 -0.18359375 1.93359375 C-0.12300781 1.29550781 -0.06242188 0.65742188 0 0 Z " fill="#CA6C8B" transform="translate(730,384)"/>
<path d="M0 0 C3.3 0.66 6.6 1.32 10 2 C9.67 2.66 9.34 3.32 9 4 C4.71 4 0.42 4 -4 4 C-3.67 3.34 -3.34 2.68 -3 2 C-2.01 2.33 -1.02 2.66 0 3 C0 2.01 0 1.02 0 0 Z " fill="#B75174" transform="translate(758,372)"/>
<path d="M0 0 C2.31 0.33 4.62 0.66 7 1 C8.0625 3.375 8.0625 3.375 9 6 C8.67 6.66 8.34 7.32 8 8 C7.34 8 6.68 8 6 8 C3 3.61538462 3 3.61538462 3 1 C2.01 0.67 1.02 0.34 0 0 Z " fill="#D08EA6" transform="translate(674,369)"/>
<path d="M0 0 C3.14330223 0.3492558 4.79491452 0.83925733 7.3125 2.8125 C9 5 9 5 9 9 C5.20596616 7.73532205 4.93315707 6.38302487 3 3 C1.41754725 1.24850835 1.41754725 1.24850835 0 0 Z " fill="#F2CEDC" transform="translate(732,339)"/>
<path d="M0 0 C2 2 2 2 2.265625 4.609375 C2.21383648 15.01886792 2.21383648 15.01886792 0 20 C-0.66 20 -1.32 20 -2 20 C-1.67 19.113125 -1.34 18.22625 -1 17.3125 C0.65048396 11.68690677 0.15703422 5.80154186 0 0 Z " fill="#D68BA4" transform="translate(620,344)"/>
<path d="M0 0 C0.99 0 1.98 0 3 0 C3.33 1.32 3.66 2.64 4 4 C3.34 4 2.68 4 2 4 C0.2856382 5.95927063 -1.38405168 7.95880212 -3 10 C-3 6.13304322 -1.58090029 3.4911548 0 0 Z " fill="#F2D3DF" transform="translate(627,393)"/>
<path d="M0 0 C3.1875 0.875 3.1875 0.875 6 2 C5.01 2.495 5.01 2.495 4 3 C4 3.66 4 4.32 4 5 C2.35 5.33 0.7 5.66 -1 6 C-1.66 4.68 -2.32 3.36 -3 2 C-2.01 1.34 -1.02 0.68 0 0 Z " fill="#D192AB" transform="translate(745,392)"/>
<path d="M0 0 C0.99 0 1.98 0 3 0 C3 2.64 3 5.28 3 8 C4.32 8.33 5.64 8.66 7 9 C3.625 9.625 3.625 9.625 0 10 C-0.66 9.34 -1.32 8.68 -2 8 C-1.34 8 -0.68 8 0 8 C0 5.36 0 2.72 0 0 Z " fill="#ECCDDA" transform="translate(706,436)"/>
<path d="M0 0 C1.32 0 2.64 0 4 0 C4 0.66 4 1.32 4 2 C3.34 2 2.68 2 2 2 C2.99 3.485 2.99 3.485 4 5 C3.625 7.1875 3.625 7.1875 3 9 C2.01 9 1.02 9 0 9 C0 8.34 0 7.68 0 7 C0.66 7 1.32 7 2 7 C2 6.34 2 5.68 2 5 C1.34 5 0.68 5 0 5 C0 3.35 0 1.7 0 0 Z " fill="#C190A3" transform="translate(668,436)"/>
<path d="M0 0 C0.804375 0.309375 1.60875 0.61875 2.4375 0.9375 C6.62249087 2.18565517 10.66306101 2.6337696 15 3 C15 3.33 15 3.66 15 4 C9.06 4.495 9.06 4.495 3 5 C3 4.34 3 3.68 3 3 C2.01 2.67 1.02 2.34 0 2 C0 1.34 0 0.68 0 0 Z " fill="#BF6080" transform="translate(697,407)"/>
<path d="M0 0 C0.99 0 1.98 0 3 0 C5.56687367 3.8503105 4.83288724 5.58569763 4 10 C2.88941214 7.92690266 2.02601506 6.11381589 1.5 3.8125 C1.335 3.214375 1.17 2.61625 1 2 C0.34 1.67 -0.32 1.34 -1 1 C-0.67 0.67 -0.34 0.34 0 0 Z " fill="#BA446C" transform="translate(674,370)"/>
<path d="M0 0 C2.31 1.65 4.62 3.3 7 5 C6.67 5.99 6.34 6.98 6 8 C4.68 7.67 3.36 7.34 2 7 C1.34 4.69 0.68 2.38 0 0 Z " fill="#CD819C" transform="translate(582,404)"/>
<path d="M0 0 C3.63 0 7.26 0 11 0 C10.67 0.66 10.34 1.32 10 2 C8.68 2 7.36 2 6 2 C6 2.66 6 3.32 6 4 C4.35 3.67 2.7 3.34 1 3 C0.67 2.01 0.34 1.02 0 0 Z " fill="#D28EA8" transform="translate(631,393)"/>
<path d="M0 0 C0.99 0 1.98 0 3 0 C3.33 2.64 3.66 5.28 4 8 C2.68 8.33 1.36 8.66 0 9 C0 8.34 0 7.68 0 7 C0.66 7 1.32 7 2 7 C2 6.34 2 5.68 2 5 C1.34 5 0.68 5 0 5 C0 3.35 0 1.7 0 0 Z " fill="#C48EA3" transform="translate(632,436)"/>
<path d="M0 0 C0.99 0 1.98 0 3 0 C3 2.97 3 5.94 3 9 C2.01 9 1.02 9 0 9 C0 6.03 0 3.06 0 0 Z " fill="#C4879E" transform="translate(649,436)"/>
<path d="M0 0 C0.66 0.99 1.32 1.98 2 3 C-0.31 5.64 -2.62 8.28 -5 11 C-5.66 10.67 -6.32 10.34 -7 10 C-3.535 5.05 -3.535 5.05 0 0 Z " fill="#BC8296" transform="translate(565,397)"/>
<path d="M0 0 C0.58265625 0.21527344 1.1653125 0.43054688 1.765625 0.65234375 C0.50322788 1.5189299 -0.76965001 2.37026434 -2.046875 3.21484375 C-3.10841797 3.92833984 -3.10841797 3.92833984 -4.19140625 4.65625 C-6.234375 5.65234375 -6.234375 5.65234375 -9.234375 4.65234375 C-8.16330383 3.78285058 -7.07691556 2.9322017 -5.984375 2.08984375 C-5.38109375 1.61417969 -4.7778125 1.13851563 -4.15625 0.6484375 C-2.234375 -0.34765625 -2.234375 -0.34765625 0 0 Z " fill="#B7627F" transform="translate(592.234375,383.34765625)"/>
<path d="M0 0 C1.98 0.99 1.98 0.99 4 2 C4.75 5.625 4.75 5.625 5 9 C4.01 9 3.02 9 2 9 C1.34 6.03 0.68 3.06 0 0 Z " fill="#F2C7DA" transform="translate(731,377)"/>
<path d="M0 0 C4.92307692 4.30769231 4.92307692 4.30769231 5.3125 7.8125 C5.209375 8.534375 5.10625 9.25625 5 10 C4.01 10 3.02 10 2 10 C1.34 6.7 0.68 3.4 0 0 Z " fill="#F4CEDF" transform="translate(619,376)"/>
<path d="M0 0 C5.94 0.99 5.94 0.99 12 2 C11.01 2.99 10.02 3.98 9 5 C5.14751405 4.75921963 3.23960066 4.15973378 0 2 C0 1.34 0 0.68 0 0 Z " fill="#BF7C93" transform="translate(707,370)"/>
<path d="M0 0 C0.66 0 1.32 0 2 0 C2.33 1.32 2.66 2.64 3 4 C3.99 4 4.98 4 6 4 C6 4.99 6 5.98 6 7 C4.02 7 2.04 7 0 7 C0 4.69 0 2.38 0 0 Z " fill="#EAD7DD" transform="translate(737,438)"/>
<path d="M0 0 C0.99 0 1.98 0 3 0 C3.433125 0.9590625 3.433125 0.9590625 3.875 1.9375 C4.82823451 4.15206079 4.82823451 4.15206079 7 5 C7 5.99 7 6.98 7 8 C3.64379729 6.61122646 1.92701272 5.08322035 0 2 C0 1.34 0 0.68 0 0 Z " fill="#BF5B7D" transform="translate(580,407)"/>
<path d="M0 0 C5.75 1.75 5.75 1.75 8 4 C10.57061311 4.64767793 10.57061311 4.64767793 13 5 C13 5.33 13 5.66 13 6 C7.00186278 6.59981372 7.00186278 6.59981372 4.19921875 4.921875 C2.5625 3.5625 2.5625 3.5625 0 1 C0 0.67 0 0.34 0 0 Z " fill="#C17490" transform="translate(630,395)"/>
<path d="M0 0 C0.33 0 0.66 0 1 0 C1.19672365 1.72814161 1.38196799 3.45759197 1.5625 5.1875 C1.66691406 6.15042969 1.77132812 7.11335938 1.87890625 8.10546875 C1.99758751 10.94233377 1.67765639 13.25423671 1 16 C0.01 15.34 -0.98 14.68 -2 14 C-1.34 9.38 -0.68 4.76 0 0 Z " fill="#F0CBDB" transform="translate(654,381)"/>
<path d="M0 0 C3.96 0 7.92 0 12 0 C11.67 2.64 11.34 5.28 11 8 C10.67 8 10.34 8 10 8 C10 6.02 10 4.04 10 2 C8.68 2.33 7.36 2.66 6 3 C6 2.67 6 2.34 6 2 C3.03 1.505 3.03 1.505 0 1 C0 0.67 0 0.34 0 0 Z " fill="#DF9EB7" transform="translate(761,373)"/>
<path d="M0 0 C0.598125 0.20625 1.19625 0.4125 1.8125 0.625 C1.4825 1.615 1.1525 2.605 0.8125 3.625 C-1.1675 3.955 -3.1475 4.285 -5.1875 4.625 C-5.1875 3.635 -5.1875 2.645 -5.1875 1.625 C-2.1875 -0.375 -2.1875 -0.375 0 0 Z " fill="#C63C6A" transform="translate(639.1875,372.375)"/>
<path d="M0 0 C0.33 0 0.66 0 1 0 C1 1.65 1 3.3 1 5 C1.66 5.33 2.32 5.66 3 6 C3.33 6.66 3.66 7.32 4 8 C3.01 8.33 2.02 8.66 1 9 C0.01 8.34 -0.98 7.68 -2 7 C-2 6.01 -2 5.02 -2 4 C-1.34 4 -0.68 4 0 4 C0 2.68 0 1.36 0 0 Z " fill="#CE829D" transform="translate(792,389)"/>
<path d="M0 0 C4.875 0.875 4.875 0.875 6 2 C6.04092937 4.33297433 6.04241723 6.66705225 6 9 C5.67 9 5.34 9 5 9 C5 7.35 5 5.7 5 4 C4.360625 3.896875 3.72125 3.79375 3.0625 3.6875 C2.381875 3.460625 1.70125 3.23375 1 3 C0.67 2.01 0.34 1.02 0 0 Z " fill="#D59DB3" transform="translate(661,367)"/>
<path d="M0 0 C0.66 0 1.32 0 2 0 C2 2.97 2 5.94 2 9 C1.34 8.34 0.68 7.68 0 7 C-0.99 7.495 -0.99 7.495 -2 8 C-1.34 5.36 -0.68 2.72 0 0 Z " fill="#F2DAE5" transform="translate(647,436)"/>
<path d="M0 0 C0.99 0 1.98 0 3 0 C3 0.66 3 1.32 3 2 C2.34 2 1.68 2 1 2 C1 2.99 1 3.98 1 5 C1.66 5 2.32 5 3 5 C3 5.66 3 6.32 3 7 C1.68 6.67 0.36 6.34 -1 6 C-1.042721 4.33388095 -1.04063832 2.66617115 -1 1 C-0.67 0.67 -0.34 0.34 0 0 Z " fill="#C396A7" transform="translate(728,438)"/>
<path d="M0 0 C0.33 0.99 0.66 1.98 1 3 C1.99 3.33 2.98 3.66 4 4 C3.34 4 2.68 4 2 4 C2 4.66 2 5.32 2 6 C0.35 6 -1.3 6 -3 6 C-1.125 1.125 -1.125 1.125 0 0 Z " fill="#F3DCE5" transform="translate(705,366)"/>
<path d="M0 0 C2.97 0.495 2.97 0.495 6 1 C4.71937515 2.7074998 3.38232443 4.37373596 2 6 C1.34 6 0.68 6 0 6 C0 4.02 0 2.04 0 0 Z " fill="#F3DBE4" transform="translate(779,369)"/>
<path d="M0 0 C1.051875 0.5878125 1.051875 0.5878125 2.125 1.1875 C1.135 2.6725 1.135 2.6725 0.125 4.1875 C-0.535 4.1875 -1.195 4.1875 -1.875 4.1875 C-1.875 3.1975 -1.875 2.2075 -1.875 1.1875 C-2.865 1.8475 -3.855 2.5075 -4.875 3.1875 C-7.0625 2.8125 -7.0625 2.8125 -8.875 2.1875 C-3.58269231 -1.0125 -3.58269231 -1.0125 0 0 Z " fill="#C85F82" transform="translate(616.875,368.8125)"/>
<path d="M0 0 C2.475 0.495 2.475 0.495 5 1 C5.66 3.31 6.32 5.62 7 8 C6.01 8.495 6.01 8.495 5 9 C5 7.35 5 5.7 5 4 C4.01 3.67 3.02 3.34 2 3 C2 2.34 2 1.68 2 1 C1.34 0.67 0.68 0.34 0 0 Z " fill="#D296AB" transform="translate(773,367)"/>
<path d="M0 0 C1.051875 0.12375 2.10375 0.2475 3.1875 0.375 C3.1875 0.705 3.1875 1.035 3.1875 1.375 C2.28 1.436875 1.3725 1.49875 0.4375 1.5625 C-3.55034176 2.55946044 -4.57842111 4.02388166 -6.8125 7.375 C-7.4725 7.045 -8.1325 6.715 -8.8125 6.375 C-4.75096154 0.46730769 -4.75096154 0.46730769 0 0 Z " fill="#F2CFDC" transform="translate(614.8125,340.625)"/>
<path d="M0 0 C0.66 0.66 1.32 1.32 2 2 C1.6875 3.75 1.6875 3.75 1 6 C0.65421232 7.99788438 0.31856451 9.99759451 0 12 C-0.33 12 -0.66 12 -1 12 C-1.33 8.7 -1.66 5.4 -2 2 C-1.34 2 -0.68 2 0 2 C0 1.34 0 0.68 0 0 Z " fill="#C36585" transform="translate(619,378)"/>
<path d="M0 0 C-3.63423209 2.32590854 -6.77088331 2.16265833 -11 2 C-10 0 -10 0 -8.3125 -0.6875 C-5.37519398 -1.08443325 -2.88840266 -0.59080963 0 0 Z " fill="#F7DDE7" transform="translate(628,371)"/>
<path d="M0 0 C0.33 0.66 0.66 1.32 1 2 C-0.25 4.5625 -0.25 4.5625 -2 7 C-2.99 7.33 -3.98 7.66 -5 8 C-3.8141763 4.62496331 -2.72426311 2.35277269 0 0 Z " fill="#F2D6E1" transform="translate(598,357)"/>
<path d="M0 0 C0.33 0.99 0.66 1.98 1 3 C-0.3125 5.1875 -0.3125 5.1875 -2 7 C-2.66 7 -3.32 7 -4 7 C-3.6875 4.625 -3.6875 4.625 -3 2 C-2.01 1.34 -1.02 0.68 0 0 Z " fill="#BC5B7C" transform="translate(714,349)"/>
<path d="M0 0 C0 0.66 0 1.32 0 2 C0.66 2.33 1.32 2.66 2 3 C1.34 3 0.68 3 0 3 C-0.33 3.66 -0.66 4.32 -1 5 C-3.31 4.34 -5.62 3.68 -8 3 C-2 0 -2 0 0 0 Z " fill="#C96287" transform="translate(620,338)"/>
<path d="M0 0 C4.29 0 8.58 0 13 0 C13 0.33 13 0.66 13 1 C12.24074219 1.04898437 11.48148438 1.09796875 10.69921875 1.1484375 C9.70535156 1.22320312 8.71148438 1.29796875 7.6875 1.375 C6.20830078 1.47941406 6.20830078 1.47941406 4.69921875 1.5859375 C1.78471567 1.83865472 1.78471567 1.83865472 -1 4 C-0.67 2.68 -0.34 1.36 0 0 Z " fill="#EFD0DB" transform="translate(721,336)"/>
<path d="M0 0 C1.32 0 2.64 0 4 0 C3.67 2.31 3.34 4.62 3 7 C2.34 7 1.68 7 1 7 C0.67 4.69 0.34 2.38 0 0 Z " fill="#BE899D" transform="translate(717,437)"/>
<path d="M0 0 C2.25 0.25 2.25 0.25 4 1 C2.02 2.32 0.04 3.64 -2 5 C-2.66 4.67 -3.32 4.34 -4 4 C-2.25 1.9375 -2.25 1.9375 0 0 Z " fill="#B76380" transform="translate(702,383)"/>
<path d="M0 0 C2.475 0.495 2.475 0.495 5 1 C4.67 2.32 4.34 3.64 4 5 C2.68 4.67 1.36 4.34 0 4 C0 2.68 0 1.36 0 0 Z " fill="#D598AE" transform="translate(641,370)"/>
<path d="M0 0 C0.66 0 1.32 0 2 0 C0.75023244 3.65316671 0.32901247 4.78065836 -3 7 C-2.25 2.25 -2.25 2.25 0 0 Z " fill="#BB6481" transform="translate(587,368)"/>
<path d="M0 0 C0.33 0.99 0.66 1.98 1 3 C2.32 2.01 3.64 1.02 5 0 C5 0.99 5 1.98 5 3 C5.66 3.33 6.32 3.66 7 4 C5.02 4.33 3.04 4.66 1 5 C0.67 3.35 0.34 1.7 0 0 Z " fill="#EECBDA" transform="translate(638,441)"/>
<path d="M0 0 C0.66 0 1.32 0 2 0 C2.33 0.99 2.66 1.98 3 3 C-0.4352048 5.29013653 -1.985331 5.17842973 -6 5 C-6 4.67 -6 4.34 -6 4 C-4.35 4 -2.7 4 -1 4 C-0.67 2.68 -0.34 1.36 0 0 Z " fill="#F1DEE7" transform="translate(753,389)"/>
<path d="M0 0 C0.99 0 1.98 0 3 0 C3 0.66 3 1.32 3 2 C3.99 2.33 4.98 2.66 6 3 C2.625 3.625 2.625 3.625 -1 4 C-1.66 3.34 -2.32 2.68 -3 2 C-2.01 2 -1.02 2 0 2 C0 1.34 0 0.68 0 0 Z " fill="#CC7B99" transform="translate(722,375)"/>
<path d="M0 0 C-0.33 2.97 -0.66 5.94 -1 9 C-1.33 9 -1.66 9 -2 9 C-2 7.02 -2 5.04 -2 3 C-2.99 2.67 -3.98 2.34 -5 2 C-1.125 0 -1.125 0 0 0 Z " fill="#EFC3D4" transform="translate(660,373)"/>
<path d="M0 0 C2.31 0 4.62 0 7 0 C7 0.66 7 1.32 7 2 C4.36 2.33 1.72 2.66 -1 3 C-0.67 2.01 -0.34 1.02 0 0 Z " fill="#C2436E" transform="translate(724,338)"/>
</svg>
