<?xml version="1.0" encoding="UTF-8"?>
<svg version="1.1" xmlns="http://www.w3.org/2000/svg" width="1366" height="768">
<path d="M0 0 C15.90500403 14.44247492 26.94502926 34.55337267 28.12451172 56.29516602 C28.88227761 80.29657705 23.78086935 101.67995872 7.6875 120.125 C6.14359304 121.76767542 4.58095876 123.39295281 3 125 C2.23945312 125.7734375 1.47890625 126.546875 0.6953125 127.34375 C-17.56837529 144.82898552 -39.85645648 149.66868318 -64.390625 149.31640625 C-72.10024045 149.05659264 -78.75781172 147.7529312 -86 145 C-87.04800781 144.62617188 -88.09601562 144.25234375 -89.17578125 143.8671875 C-110.22952057 135.788116 -126.6045451 119.36889222 -136.11132812 99.08544922 C-145.84836015 76.23552407 -145.33767913 51.70297879 -136.375 28.8125 C-126.37792406 6.93447702 -108.16845336 -8.78243033 -85.89404297 -17.3203125 C-56.27597496 -27.94891541 -23.3781755 -20.65009019 0 0 Z M-53 -13 C-53 0.86 -53 14.72 -53 29 C-45.89766315 29.14134618 -45.89766315 29.14134618 -39.2890625 28.16015625 C-38.51949219 27.98419922 -37.74992188 27.80824219 -36.95703125 27.62695312 C-36.18746094 27.44068359 -35.41789063 27.25441406 -34.625 27.0625 C-33.43583984 26.78889648 -33.43583984 26.78889648 -32.22265625 26.50976562 C-29.08964223 25.7808495 -26.05438209 25.01812736 -23 24 C-26.69878738 11.46522053 -33.52834647 -2.77157891 -45 -10 C-47.64 -10.99 -50.28 -11.98 -53 -13 Z M-76.28125 -4.80859375 C-83.22183236 2.49479178 -91 13.70832271 -91 24 C-88.79290017 24.65003625 -86.58426108 25.29484745 -84.375 25.9375 C-83.14523437 26.29714844 -81.91546875 26.65679687 -80.6484375 27.02734375 C-74.02099477 28.79418876 -69.0903313 29 -62 29 C-62 15.14 -62 1.28 -62 -13 C-66.82982447 -13 -72.84275558 -7.94231253 -76.28125 -4.80859375 Z M-110 7 C-111.32 8.65 -112.64 10.3 -114 12 C-107.07 15.96 -107.07 15.96 -100 20 C-97.24748896 17.24748896 -96.20502482 13.91805137 -94.75 10.375 C-92.41532441 4.82543224 -90.02362231 -0.00904556 -86.06640625 -4.6171875 C-84.79643892 -5.97291648 -84.79643892 -5.97291648 -85 -8 C-93.20102963 -8 -104.39386024 1.73456487 -110 7 Z M-30 -8 C-27.51446917 -3.53474573 -27.51446917 -3.53474573 -24.796875 0.7890625 C-20.77724183 6.76763082 -18.42090921 13.24205769 -16 20 C-11.8969314 18.7750259 -8.63561861 17.32179479 -5.125 14.875 C-3.95324219 14.06675781 -3.95324219 14.06675781 -2.7578125 13.2421875 C-2.17773438 12.83226562 -1.59765625 12.42234375 -1 12 C-7.99737405 2.92232556 -17.38509901 -3.67925752 -28 -8 C-28.66 -8 -29.32 -8 -30 -8 Z M-120 18 C-128.22369253 31.85253063 -134 43.56389051 -134 60 C-124.76 60 -115.52 60 -106 60 C-105.525625 56.205 -105.05125 52.41 -104.5625 48.5 C-103.70833333 41.66666667 -102.85416667 34.83333333 -102 28 C-104.24923704 26.7069894 -106.49935185 25.41555023 -108.75 24.125 C-109.38421875 23.76019531 -110.0184375 23.39539063 -110.671875 23.01953125 C-113.74250368 21.2603169 -116.80851875 19.53126626 -120 18 Z M4 18 C1.79455257 19.20378195 -0.27458102 20.44537708 -2.375 21.8125 C-5.8502025 24.03492303 -9.28565034 26.1941478 -13 28 C-12.91435791 28.54301758 -12.82871582 29.08603516 -12.74047852 29.64550781 C-12.34340982 32.17966937 -11.95294827 34.71481029 -11.5625 37.25 C-11.42779297 38.10335937 -11.29308594 38.95671875 -11.15429688 39.8359375 C-10.12217496 46.5824905 -9.5703483 53.15582036 -9 60 C0.57 60 10.14 60 20 60 C18.43395324 44.90900394 14.815051 31.67857461 6 19 C5.34 18.67 4.68 18.34 4 18 Z M-94 31 C-94.49118343 33.20569165 -94.96709745 35.41478321 -95.4375 37.625 C-95.70433594 38.85476563 -95.97117187 40.08453125 -96.24609375 41.3515625 C-97.24564692 47.51461053 -97.55516348 53.7722887 -98 60 C-86.12 60 -74.24 60 -62 60 C-61.979375 56.390625 -61.95875 52.78125 -61.9375 49.0625 C-61.928396 47.92304932 -61.91929199 46.78359863 -61.90991211 45.60961914 C-61.90741455 44.71879639 -61.90491699 43.82797363 -61.90234375 42.91015625 C-61.89710693 41.99371338 -61.89187012 41.07727051 -61.88647461 40.13305664 C-61.76078789 38.01636977 -61.76078789 38.01636977 -63 37 C-65.37499237 36.6948165 -67.74366422 36.43192348 -70.125 36.1875 C-78.35540882 35.26822549 -86.06429112 33.3487874 -94 31 Z M-28.01171875 32.7421875 C-28.77033203 32.92136719 -29.52894531 33.10054688 -30.31054688 33.28515625 C-31.09494141 33.47980469 -31.87933594 33.67445313 -32.6875 33.875 C-38.18323648 35.21768204 -43.51896303 36.27737098 -49.16333008 36.75830078 C-51.09333722 36.91054631 -51.09333722 36.91054631 -53 38 C-53 45.26 -53 52.52 -53 60 C-41.12 60 -29.24 60 -17 60 C-17.80458099 46.32545403 -17.80458099 46.32545403 -20 33 C-23.00435093 32.06158585 -24.96483068 31.99181549 -28.01171875 32.7421875 Z M-134 68 C-134 84.14738062 -128.851652 96.722522 -120 110 C-116.14308372 108.14945936 -112.45576705 106.00656926 -108.75 103.875 C-108.1003125 103.50246094 -107.450625 103.12992188 -106.78125 102.74609375 C-105.18693776 101.83170879 -103.5933921 100.91598744 -102 100 C-102.19916016 98.40671875 -102.19916016 98.40671875 -102.40234375 96.78125 C-103.6015625 87.1875 -104.80078125 77.59375 -106 68 C-115.24 68 -124.48 68 -134 68 Z M-98 68 C-97.71125 71.3 -97.4225 74.6 -97.125 78 C-97.03879395 79.02351563 -96.95258789 80.04703125 -96.86376953 81.1015625 C-96.36150102 86.58935038 -95.48947359 91.69296804 -94 97 C-93.12432373 96.78065796 -93.12432373 96.78065796 -92.23095703 96.55688477 C-89.53070667 95.88488761 -86.82792344 95.22365984 -84.125 94.5625 C-83.2071875 94.33240234 -82.289375 94.10230469 -81.34375 93.86523438 C-75.85300223 92.53121467 -70.53329619 91.62769068 -64.89404297 91.22631836 C-62.99076554 91.19683793 -62.99076554 91.19683793 -62 90 C-61.91299658 88.36527118 -61.89298937 86.72685945 -61.90234375 85.08984375 C-61.90484131 84.199021 -61.90733887 83.30819824 -61.90991211 82.39038086 C-61.91901611 81.25093018 -61.92812012 80.11147949 -61.9375 78.9375 C-61.958125 75.328125 -61.97875 71.71875 -62 68 C-73.88 68 -85.76 68 -98 68 Z M-53 68 C-53 75.26 -53 82.52 -53 90 C-50.4425 90.433125 -47.885 90.86625 -45.25 91.3125 C-38.86861318 92.40703017 -32.64697232 93.75460881 -26.41796875 95.546875 C-23.84575002 96.0289063 -22.473003 95.70666559 -20 95 C-19.49212954 92.00114586 -18.99353375 89.00121874 -18.5 86 C-18.35691406 85.16082031 -18.21382812 84.32164062 -18.06640625 83.45703125 C-17.93105469 82.62558594 -17.79570313 81.79414063 -17.65625 80.9375 C-17.53056641 80.18339844 -17.40488281 79.42929687 -17.27539062 78.65234375 C-16.90856479 75.11936866 -17 71.55196765 -17 68 C-28.88 68 -40.76 68 -53 68 Z M-9 68 C-9.28875 70.866875 -9.5775 73.73375 -9.875 76.6875 C-10.68043581 84.50480673 -11.69194958 92.2491055 -13 100 C-10.75076296 101.2930106 -8.50064815 102.58444977 -6.25 103.875 C-5.61578125 104.23980469 -4.9815625 104.60460937 -4.328125 104.98046875 C-1.25749632 106.7396831 1.80851875 108.46873374 5 110 C13.64174036 97.34869134 20 83.60296184 20 68 C10.43 68 0.86 68 -9 68 Z M-73.734375 99.83984375 C-74.55550781 100.01580078 -75.37664062 100.19175781 -76.22265625 100.37304688 C-77.47369141 100.65245117 -77.47369141 100.65245117 -78.75 100.9375 C-79.59949219 101.11990234 -80.44898438 101.30230469 -81.32421875 101.49023438 C-84.61893348 102.20591096 -87.79819502 102.93273167 -91 104 C-88.92254386 116.67248243 -81.73245242 129.18046638 -71.375 137 C-67.71346789 139.33061397 -67.71346789 139.33061397 -62 141 C-62 127.14 -62 113.28 -62 99 C-68.04136756 98.96703461 -68.04136756 98.96703461 -73.734375 99.83984375 Z M-53 99 C-53 112.86 -53 126.72 -53 141 C-37.11542221 135.04328333 -30.85839952 123.56635508 -24.06640625 108.65234375 C-22.87565358 106.16717768 -22.87565358 106.16717768 -23 104 C-26.30827898 103.14928676 -29.62215869 102.32272051 -32.9375 101.5 C-33.86369141 101.26152344 -34.78988281 101.02304687 -35.74414062 100.77734375 C-36.66259766 100.55175781 -37.58105469 100.32617188 -38.52734375 100.09375 C-39.35999756 99.88427734 -40.19265137 99.67480469 -41.05053711 99.45898438 C-44.98922346 98.84606075 -49.01390849 99 -53 99 Z M-16 108 C-16.29132813 108.73863281 -16.58265625 109.47726562 -16.8828125 110.23828125 C-20.53849804 119.28552816 -24.95626723 127.65844195 -30 136 C-19.34702949 132.73792175 -9.36732548 126.41048661 -2 118 C-2 117.01 -2 116.02 -2 115 C-4.61485148 113.06306255 -4.61485148 113.06306255 -7.875 111.3125 C-8.96554687 110.68988281 -10.05609375 110.06726563 -11.1796875 109.42578125 C-13.77077627 107.84961179 -13.77077627 107.84961179 -16 108 Z M-107.0625 112 C-107.72572266 112.3815625 -108.38894531 112.763125 -109.07226562 113.15625 C-110.71594643 114.10225334 -112.35811445 115.05088423 -114 116 C-106.5170918 125.6490132 -96.9285309 130.87373035 -86 136 C-86 132.02102938 -87.51288767 130.37868331 -89.6875 127.0625 C-93.57953355 120.99027093 -96.46505785 114.76390813 -99 108 C-101.62591569 108 -104.75831938 110.66659342 -107.0625 112 Z " fill="#FFFFFF" transform="translate(740,320)"/>
<path d="M0 0 C3.59561255 0.01831257 7.19096658 0.02050851 10.78662109 0.02026367 C57.11378345 0.08967201 57.11378345 0.08967201 70.75927734 12.24487305 C81.25669031 23.37134447 84.52927752 36.69439446 84.6472168 51.65307617 C84.65378799 52.35030792 84.66035919 53.04753967 84.66712952 53.76589966 C84.68665653 56.04795486 84.6984817 58.32994476 84.70849609 60.61206055 C84.71257162 61.40116318 84.71664715 62.19026581 84.72084618 63.00328064 C84.7416245 67.18439461 84.75595871 71.36547662 84.76538086 75.54663086 C84.7763982 79.81832487 84.81076736 84.08949129 84.85055256 88.36100006 C84.87696899 91.6866132 84.88509481 95.01210557 84.88866234 98.33781433 C84.89346791 99.90996341 84.90490424 101.48210939 84.92370033 103.05415344 C85.09171024 118.04309938 83.59798607 133.31920882 73.47021484 145.20581055 C63.38642227 155.07256785 51.69156074 159.26596696 37.77880859 159.82299805 C36.96117538 159.86053192 36.14354218 159.8980658 35.3011322 159.93673706 C26.59990859 160.3016805 17.8989043 160.3569925 9.19116211 160.33618164 C6.53737666 160.33081997 3.88376088 160.33617177 1.22998047 160.3425293 C-7.66730698 160.34662943 -16.54402102 160.19395744 -25.43212891 159.77612305 C-26.65765724 159.72115158 -26.65765724 159.72115158 -27.90794373 159.66506958 C-41.68968811 158.94173399 -53.8630774 155.01946038 -63.48681641 144.79956055 C-74.40834348 130.93360648 -74.68908358 114.72608037 -74.69775391 97.8737793 C-74.70097536 96.39081288 -74.70434007 94.90784677 -74.70783997 93.42488098 C-74.71379892 90.3276801 -74.7156832 87.23050698 -74.71508789 84.13330078 C-74.71498643 80.19658417 -74.7286365 76.26004857 -74.7458601 72.32337475 C-74.7570676 69.26299752 -74.75900444 66.20266286 -74.75847816 63.14226723 C-74.75964522 61.69244069 -74.76399384 60.24261257 -74.77181053 58.79280663 C-74.855193 41.73211873 -73.29376633 26.15980106 -60.92041016 13.3972168 C-44.19042231 -1.9386054 -21.3043721 -0.11209763 0 0 Z M-24.62353516 15.64331055 C-25.33980072 15.68023514 -26.05606628 15.71715973 -26.79403687 15.75520325 C-36.36058639 16.33222112 -44.63113069 18.22876228 -51.52978516 25.20581055 C-60.34857962 36.4767698 -59.68571401 49.61471336 -59.69775391 63.2878418 C-59.700978 64.63246189 -59.70434288 65.97708164 -59.70783997 67.32170105 C-59.71378898 70.12625948 -59.71568424 72.93078728 -59.71508789 75.73535156 C-59.71498646 79.29192889 -59.72863786 82.84830574 -59.7458601 86.4048357 C-59.75709253 89.17873499 -59.7590037 91.9525875 -59.75847816 94.72650719 C-59.76019871 96.66321171 -59.77096362 98.59990164 -59.7820282 100.53657532 C-59.74879098 113.5870503 -59.35478 127.80457498 -49.52978516 137.58081055 C-39.01151973 145.49754337 -25.06916924 145.01105309 -12.52978516 145.20581055 C-11.83916992 145.22095703 -11.14855469 145.23610352 -10.43701172 145.25170898 C-5.13198245 145.35997489 0.16529099 145.30067746 5.47021484 145.20581055 C6.10642761 145.19485352 6.74264038 145.18389648 7.39813232 145.17260742 C11.96665463 145.09228408 16.53459802 144.9961507 21.10250854 144.88641357 C22.66374738 144.84974956 24.22505045 144.81571324 25.78640747 144.78448486 C44.34674181 144.71319341 44.34674181 144.71319341 60.41552734 136.4831543 C67.91788896 128.58840975 69.58047735 119.11057193 69.61547852 108.47290039 C69.61883713 107.82805695 69.62219574 107.1832135 69.62565613 106.51882935 C69.63510001 104.40144891 69.63710633 102.2841482 69.63818359 100.16674805 C69.64140218 98.6794939 69.64476669 97.19224007 69.64826965 95.70498657 C69.6542456 92.58985665 69.65611128 89.47475439 69.65551758 86.35961914 C69.65541638 82.39927529 69.66903166 78.43911241 69.68628979 74.47881126 C69.69750137 71.40556043 69.69943395 68.33235197 69.69890785 65.25908279 C69.70007564 63.80088303 69.70442858 62.34268172 69.71224022 60.88450241 C70.08980623 41.75305879 70.08980623 41.75305879 61.67724609 25.26831055 C48.43076815 12.96983973 29.07502899 14.89630494 12.17138672 15 C9.10684813 15.0182413 6.04261466 15.02050884 2.97802734 15.02026367 C-6.23179223 15.03635065 -15.42542091 15.15607132 -24.62353516 15.64331055 Z " fill="#FFFFFF" transform="translate(326.52978515625,303.794189453125)"/>
<path d="M0 0 C1.21287186 -0.00281982 2.42574371 -0.00563965 3.67536926 -0.00854492 C5.02140823 -0.00660058 6.36744705 -0.00455241 7.71348572 -0.00241089 C9.12938482 -0.00376573 10.54528356 -0.00554613 11.96118164 -0.00772095 C15.8081318 -0.01228498 19.65505518 -0.01051005 23.50200582 -0.00734186 C27.52362596 -0.00481346 31.54524378 -0.0071571 35.56686401 -0.00872803 C42.31984367 -0.0105481 49.0728124 -0.00814743 55.82579041 -0.00338745 C63.64031031 0.00205706 71.45480413 0.00029049 79.26932341 -0.00521386 C85.97254665 -0.00974696 92.67576202 -0.01039463 99.3789863 -0.00777519 C103.38530209 -0.00621379 107.3916056 -0.00601496 111.39792061 -0.00931168 C115.16287779 -0.01219332 118.92780122 -0.01020927 122.69275475 -0.00441742 C124.07710336 -0.0030915 125.4614548 -0.00348111 126.84580231 -0.00568008 C128.73012696 -0.00839804 130.6144578 -0.0043911 132.4987793 0 C133.55494477 0.00037703 134.61111025 0.00075405 135.69928074 0.0011425 C138.18589783 0.12698364 138.18589783 0.12698364 140.18589783 1.12698364 C138.89011659 4.01020356 137.56845231 5.96145901 135.23667908 8.08792114 C134.64371033 8.63448364 134.05074158 9.18104614 133.43980408 9.74417114 C132.79914001 10.32424927 132.15847595 10.90432739 131.49839783 11.50198364 C130.12976797 12.75964351 128.76128235 14.01746035 127.39292908 15.27542114 C126.34226257 16.23593384 126.34226257 16.23593384 125.27037048 17.21585083 C122.0547735 20.16404633 118.87110307 23.14603921 115.68589783 26.12698364 C114.43607131 27.29383616 113.18607074 28.46050227 111.93589783 29.62698364 C111.31714783 30.20448364 110.69839783 30.78198364 110.06089783 31.37698364 C108.18589783 33.12698364 106.31089783 34.87698364 104.43589783 36.62698364 C103.81682556 37.20480591 103.1977533 37.78262817 102.55992126 38.37796021 C101.31326311 39.5414645 100.06651869 40.70487637 98.81968689 41.86819458 C95.64283313 44.83248311 92.46761886 47.79849599 89.29527283 50.76760864 C81.97769587 57.61305417 74.62559603 64.41424139 67.18589783 71.12698364 C62.46457674 69.70281915 59.67585173 66.93381672 56.37339783 63.43948364 C55.31155624 62.34513006 54.24775556 61.25267392 53.18199158 60.16213989 C52.66878357 59.63636353 52.15557556 59.11058716 51.6268158 58.56887817 C49.21937192 56.15980269 46.63673365 53.9735629 44.04527283 51.76760864 C41.2950701 49.34095918 38.76201606 46.71212133 36.18980408 44.09963989 C33.60343631 41.55360535 30.87054503 39.20676808 28.11949158 36.84182739 C25.62158227 34.62650984 23.30564794 32.25800194 20.96714783 29.87698364 C19.10200108 28.04455877 17.16662037 26.3334523 15.18589783 24.62698364 C11.95833248 21.84631196 8.95518616 18.92235324 5.97496033 15.88088989 C4.07274201 14.01605141 2.08827407 12.29192969 0.06089783 10.56448364 C-3.31170755 7.66430548 -6.07964302 4.63050944 -8.81410217 1.12698364 C-5.62166619 0.06283832 -3.35496457 0.00119721 0 0 Z " fill="#FFFFFF" transform="translate(960.8141021728516,323.8730163574219)"/>
<path d="M0 0 C3.59721356 1.4954708 5.63097221 3.52706308 8.1875 6.4375 C8.97898437 7.33726562 9.77046875 8.23703125 10.5859375 9.1640625 C12.87097117 11.84842245 15.09962313 14.56853269 17.3125 17.3125 C21.72021466 22.76231882 26.43279192 27.87440633 31.2109375 32.99609375 C33.98391453 35.97032028 36.67756506 39.00544587 39.33203125 42.0859375 C40.60309144 43.54453116 41.89629754 44.98385769 43.19921875 46.4140625 C43.93785156 47.22617187 44.67648437 48.03828125 45.4375 48.875 C46.11683594 49.61492187 46.79617188 50.35484375 47.49609375 51.1171875 C49 53 49 53 49 55 C46.31100954 56.34449523 44.24227785 56.1259245 41.23022461 56.12698364 C40.00189911 56.12980347 38.77357361 56.13262329 37.50802612 56.13552856 C36.13946519 56.13358409 34.77090439 56.13153591 33.40234375 56.12939453 C31.96688798 56.13074895 30.53143255 56.13252911 29.09597778 56.13470459 C25.19111916 56.13927407 21.28628687 56.13749135 17.38142776 56.1343255 C13.30107806 56.13179941 9.22073065 56.13414014 5.14038086 56.13571167 C-1.712732 56.13753263 -8.56583409 56.13512897 -15.41894531 56.13037109 C-23.34989186 56.12492861 -31.28081269 56.12669132 -39.21175861 56.1321975 C-46.01262539 56.13673071 -52.81348442 56.13737816 -59.61435223 56.13475883 C-63.67992766 56.1331972 -67.74549101 56.13299918 -71.81106567 56.13629532 C-75.63264295 56.13917704 -79.45418698 56.13719277 -83.27576065 56.13140106 C-84.68107167 56.13007509 -86.08638548 56.13046485 -87.4916954 56.13266373 C-89.40453748 56.13538153 -91.31738564 56.13137488 -93.23022461 56.12698364 C-94.30243759 56.12660662 -95.37465057 56.12622959 -96.47935486 56.12584114 C-99 56 -99 56 -101 55 C-99.58261511 51.74792908 -97.87473588 49.68638933 -95.3125 47.25 C-92.55768063 44.5697696 -89.94075141 41.85418433 -87.4375 38.9375 C-84.70552153 35.75948423 -81.83013783 32.80548028 -78.84057617 29.87133789 C-77.07996789 28.0813044 -75.4334391 26.23934342 -73.796875 24.3359375 C-69.88272402 19.83507851 -65.83578098 15.46995366 -61.75 11.125 C-60.69039062 9.98804688 -60.69039062 9.98804688 -59.609375 8.828125 C-58.92875 8.10367187 -58.248125 7.37921875 -57.546875 6.6328125 C-56.93682617 5.98199707 -56.32677734 5.33118164 -55.69824219 4.66064453 C-54 3 -54 3 -51 1 C-50.17757812 1.7734375 -49.35515625 2.546875 -48.5078125 3.34375 C-45.03423805 6.59470632 -41.52583524 9.80586703 -38 13 C-36.57494141 14.29357422 -36.57494141 14.29357422 -35.12109375 15.61328125 C-34.27675781 16.33902344 -33.43242188 17.06476563 -32.5625 17.8125 C-31.82128906 18.45832031 -31.08007812 19.10414063 -30.31640625 19.76953125 C-27.12435889 21.4651382 -25.40719789 21.04172005 -22 20 C-20.10820596 18.67118514 -20.10820596 18.67118514 -18.625 16.875 C-14.97971464 12.94869043 -11.06835393 9.48034965 -7 6 C-6.319375 5.41476562 -5.63875 4.82953125 -4.9375 4.2265625 C-3.29398963 2.81499916 -1.64733469 1.40709838 0 0 Z " fill="#FFFFFF" transform="translate(1053,388)"/>
<path d="M0 0 C9.27088114 7.29908926 15.04344687 16.5300388 16.84375 28.36328125 C18.04706611 39.36234259 15.33091162 49.66943029 8.70703125 58.66015625 C8.17464844 59.31628906 7.64226562 59.97242188 7.09375 60.6484375 C6.59230469 61.27363281 6.09085937 61.89882813 5.57421875 62.54296875 C-0.98165321 69.86448999 -10.35791314 74.23267008 -20.10546875 74.8515625 C-32.91361761 75.02367648 -43.4646506 72.45144081 -53.13671875 63.609375 C-62.91779903 53.22271189 -65.40915836 43.08567476 -65.18359375 29.21484375 C-64.71738005 17.91669972 -59.21080376 9.51208165 -51.15625 1.9609375 C-36.55789118 -10.28375118 -15.46278104 -11.16151448 0 0 Z M-45.53125 17.7109375 C-50.26038854 24.71866097 -50.70193175 31.35763011 -49.90625 39.6484375 C-47.57196219 48.2789935 -42.24975627 53.01566922 -34.87109375 57.6328125 C-29.88135459 60.21200173 -24.39196374 60.42033438 -18.90625 59.6484375 C-10.97258432 56.94740308 -4.78426428 53.21529463 -0.90625 45.6484375 C2.61739078 38.17175169 2.58916709 31.494198 0.09375 23.6484375 C-3.42872586 16.26907351 -8.37615361 11.81052896 -15.65625 8.3359375 C-26.99586801 5.93717215 -38.07581592 8.15129332 -45.53125 17.7109375 Z " fill="#FFFFFF" transform="translate(355.90625,350.3515625)"/>
<path d="M0 0 C5.37157246 3.73229149 10.00801477 7.83529235 14.53125 12.55859375 C17.20409488 15.20183434 20.00635818 17.64053384 22.84570312 20.10180664 C27.22387621 23.95950108 31.41630227 28.01877921 35.64453125 32.0390625 C40.33169742 36.47773175 45.10892679 40.78696251 50 45 C46.72508014 51.79037055 41.17529448 56.89295712 35.84350586 62.12573242 C34.07271232 63.92607436 32.41857908 65.78016865 30.7734375 67.6953125 C27.00317028 72.03181764 23.08167341 76.20895104 19.125 80.375 C13.32594147 86.50598892 7.59162465 92.67835769 2 99 C1.01 98.67 0.02 98.34 -1 98 C-2.4813837 94.0166833 -2.14764279 89.7578417 -2.14526367 85.56298828 C-2.14862228 84.71372772 -2.1519809 83.86446716 -2.15544128 82.98947144 C-2.16493713 80.18307023 -2.16689372 77.37672877 -2.16796875 74.5703125 C-2.17118229 72.61742122 -2.17454644 70.66453018 -2.17805481 68.7116394 C-2.18404266 64.61781252 -2.18589506 60.52400674 -2.18530273 56.43017578 C-2.18520113 51.18901641 -2.19885274 45.94799257 -2.21607494 40.70686531 C-2.22720316 36.67307923 -2.22922169 32.63932583 -2.22869301 28.60552597 C-2.2298719 26.67346606 -2.23428862 24.74140528 -2.24202538 22.8093605 C-2.25184172 20.10474451 -2.2489407 17.40042167 -2.24291992 14.69580078 C-2.24853943 13.90079163 -2.25415894 13.10578247 -2.25994873 12.28668213 C-2.23462786 7.80193956 -1.69456977 4.22690673 0 0 Z " fill="#FFFFFF" transform="translate(942,334)"/>
<path d="M0 0 C2.97753601 2.45970366 3.46472746 4.22192439 4 8 C4.09767319 10.76689435 4.1468975 13.50848149 4.14526367 16.27514648 C4.14862228 17.09529236 4.1519809 17.91543823 4.15544128 18.76043701 C4.16491845 21.46400478 4.16689266 24.16751042 4.16796875 26.87109375 C4.17118319 28.75529506 4.1745474 30.63949611 4.17805481 32.5236969 C4.1840377 36.47031228 4.18589553 40.41690579 4.18530273 44.36352539 C4.18520107 49.41520854 4.19886146 54.46675128 4.21607494 59.51840115 C4.22720377 63.40892682 4.22922168 67.29941861 4.22869301 71.18995857 C4.22987147 73.05224149 4.23428577 74.91452532 4.24202538 76.77679253 C4.25184459 79.38311432 4.24893978 81.98913208 4.24291992 84.59545898 C4.24853943 85.36084488 4.25415894 86.12623077 4.25994873 86.91481018 C4.23413596 91.3224422 3.63040761 94.90300124 2 99 C-1.67670584 97.48947977 -3.71874462 95.3511385 -6.3125 92.375 C-7.1065625 91.47007812 -7.900625 90.56515625 -8.71875 89.6328125 C-9.4715625 88.76398438 -10.224375 87.89515625 -11 87 C-11.5671875 86.35804688 -12.134375 85.71609375 -12.71875 85.0546875 C-15.41574665 82.00073541 -18.07477283 78.91569356 -20.71484375 75.8125 C-26.54406372 68.96676629 -32.46854631 62.2450194 -38.57421875 55.64453125 C-41.4645348 52.49357478 -44.2483853 49.27219045 -47 46 C-45.60493574 42.74957109 -44.03216606 40.92628208 -41.3125 38.6875 C-38.58814836 36.38530014 -35.99338129 34.0507004 -33.5 31.5 C-31.10946833 29.06610268 -28.64953738 26.78644441 -26.0625 24.5625 C-22.53505269 21.52440954 -19.27251033 18.29247127 -16.0078125 14.9765625 C-13.40797942 12.41719375 -10.66384353 10.053156 -7.8984375 7.67578125 C-5.13597706 5.23731309 -2.57258941 2.63690415 0 0 Z " fill="#FFFFFF" transform="translate(1110,334)"/>
<path d="M0 0 C3.60199656 2.52906142 4.76443405 4.23787487 6.0625 8.4375 C5.98541095 12.83157589 4.78058336 14.66329997 2 18 C-1.20173254 19.60086627 -4.52577059 19.49917089 -8 19 C-10.8100346 17.20636089 -12.50940468 15.98119065 -14 13 C-14.39447548 8.81855989 -14.45035186 6.69053952 -12.125 3.125 C-8.53773451 -0.46226549 -4.91852613 -0.81975436 0 0 Z " fill="#FFFFFF" transform="translate(378,332)"/>
</svg>
