<?xml version="1.0" encoding="UTF-8"?>
<svg version="1.1" xmlns="http://www.w3.org/2000/svg" width="1366" height="308">
<path d="M0 0 C450.78 0 901.56 0 1366 0 C1366 101.64 1366 203.28 1366 308 C915.22 308 464.44 308 0 308 C0 206.36 0 104.72 0 0 Z " fill="#F7ECDC" transform="translate(0,0)"/>
<path d="M0 0 C38.61 0 77.22 0 117 0 C117 101.64 117 203.28 117 308 C78.39 308 39.78 308 0 308 C0 206.36 0 104.72 0 0 Z " fill="#F7ECDC" transform="translate(275,0)"/>
<path d="M0 0 C19.14 0 38.28 0 58 0 C58 101.64 58 203.28 58 308 C38.86 308 19.72 308 0 308 C0 206.36 0 104.72 0 0 Z " fill="#F8ECDC" transform="translate(916,0)"/>
<path d="M0 0 C19.14 0 38.28 0 58 0 C58 101.64 58 203.28 58 308 C38.86 308 19.72 308 0 308 C0 206.36 0 104.72 0 0 Z " fill="#F8EDDD" transform="translate(654,0)"/>
<path d="M0 0 C19.14 0 38.28 0 58 0 C58 101.64 58 203.28 58 308 C38.86 308 19.72 308 0 308 C0 206.36 0 104.72 0 0 Z " fill="#F7ECDC" transform="translate(479,0)"/>
<path d="M0 0 C19.14 0 38.28 0 58 0 C58 101.64 58 203.28 58 308 C38.86 308 19.72 308 0 308 C0 206.36 0 104.72 0 0 Z " fill="#F7ECDC" transform="translate(217,0)"/>
<path d="M0 0 C14.19 0 28.38 0 43 0 C43 101.64 43 203.28 43 308 C28.81 308 14.62 308 0 308 C0 206.36 0 104.72 0 0 Z " fill="#EABAB5" transform="translate(1323,0)"/>
<path d="M0 0 C14.19 0 28.38 0 43 0 C43 101.64 43 203.28 43 308 C28.81 308 14.62 308 0 308 C0 206.36 0 104.72 0 0 Z " fill="#EABAB5" transform="translate(0,0)"/>
<path d="M0 0 C9.9 0 19.8 0 30 0 C30 101.64 30 203.28 30 308 C20.1 308 10.2 308 0 308 C0 206.36 0 104.72 0 0 Z " fill="#F7E9DA" transform="translate(1061,0)"/>
<path d="M0 0 C9.9 0 19.8 0 30 0 C30 101.64 30 203.28 30 308 C20.1 308 10.2 308 0 308 C0 206.36 0 104.72 0 0 Z " fill="#F7E9DA" transform="translate(799,0)"/>
<path d="M0 0 C9.9 0 19.8 0 30 0 C30 101.64 30 203.28 30 308 C20.1 308 10.2 308 0 308 C0 206.36 0 104.72 0 0 Z " fill="#F7E9DA" transform="translate(537,0)"/>
<path d="M0 0 C9.9 0 19.8 0 30 0 C30 101.64 30 203.28 30 308 C20.1 308 10.2 308 0 308 C0 206.36 0 104.72 0 0 Z " fill="#F7E9DA" transform="translate(275,0)"/>
<path d="M0 0 C9.57 0 19.14 0 29 0 C29 101.64 29 203.28 29 308 C19.43 308 9.86 308 0 308 C0 206.36 0 104.72 0 0 Z " fill="#EAB9B4" transform="translate(1236,0)"/>
<path d="M0 0 C9.57 0 19.14 0 29 0 C29 101.64 29 203.28 29 308 C19.43 308 9.86 308 0 308 C0 206.36 0 104.72 0 0 Z " fill="#EABAB6" transform="translate(1149,0)"/>
<path d="M0 0 C9.57 0 19.14 0 29 0 C29 101.64 29 203.28 29 308 C19.43 308 9.86 308 0 308 C0 206.36 0 104.72 0 0 Z " fill="#EAB9B4" transform="translate(974,0)"/>
<path d="M0 0 C9.57 0 19.14 0 29 0 C29 101.64 29 203.28 29 308 C19.43 308 9.86 308 0 308 C0 206.36 0 104.72 0 0 Z " fill="#EABAB5" transform="translate(887,0)"/>
<path d="M0 0 C9.57 0 19.14 0 29 0 C29 101.64 29 203.28 29 308 C19.43 308 9.86 308 0 308 C0 206.36 0 104.72 0 0 Z " fill="#EAB9B5" transform="translate(712,0)"/>
<path d="M0 0 C9.57 0 19.14 0 29 0 C29 101.64 29 203.28 29 308 C19.43 308 9.86 308 0 308 C0 206.36 0 104.72 0 0 Z " fill="#EAB9B5" transform="translate(625,0)"/>
<path d="M0 0 C9.57 0 19.14 0 29 0 C29 101.64 29 203.28 29 308 C19.43 308 9.86 308 0 308 C0 206.36 0 104.72 0 0 Z " fill="#EABAB5" transform="translate(450,0)"/>
<path d="M0 0 C9.57 0 19.14 0 29 0 C29 101.64 29 203.28 29 308 C19.43 308 9.86 308 0 308 C0 206.36 0 104.72 0 0 Z " fill="#EAB9B4" transform="translate(363,0)"/>
<path d="M0 0 C9.57 0 19.14 0 29 0 C29 101.64 29 203.28 29 308 C19.43 308 9.86 308 0 308 C0 206.36 0 104.72 0 0 Z " fill="#EABAB6" transform="translate(188,0)"/>
<path d="M0 0 C9.57 0 19.14 0 29 0 C29 101.64 29 203.28 29 308 C19.43 308 9.86 308 0 308 C0 206.36 0 104.72 0 0 Z " fill="#EAB9B4" transform="translate(101,0)"/>
<path d="M0 0 C4.62 0 9.24 0 14 0 C14 101.64 14 203.28 14 308 C9.38 308 4.76 308 0 308 C0 206.36 0 104.72 0 0 Z " fill="#F7ECDD" transform="translate(1352,0)"/>
<path d="M0 0 C4.62 0 9.24 0 14 0 C14 101.64 14 203.28 14 308 C9.38 308 4.76 308 0 308 C0 206.36 0 104.72 0 0 Z " fill="#F7EBDB" transform="translate(0,0)"/>
<path d="M0 0 C3.3 0 6.6 0 10 0 C10 101.64 10 203.28 10 308 C6.7 308 3.4 308 0 308 C0 206.36 0 104.72 0 0 Z " fill="#EAB8B4" transform="translate(1323,0)"/>
<path d="M0 0 C3.3 0 6.6 0 10 0 C10 101.64 10 203.28 10 308 C6.7 308 3.4 308 0 308 C0 206.36 0 104.72 0 0 Z " fill="#EAB8B4" transform="translate(1255,0)"/>
<path d="M0 0 C3.3 0 6.6 0 10 0 C10 101.64 10 203.28 10 308 C6.7 308 3.4 308 0 308 C0 206.36 0 104.72 0 0 Z " fill="#EAB9B4" transform="translate(1168,0)"/>
<path d="M0 0 C3.3 0 6.6 0 10 0 C10 101.64 10 203.28 10 308 C6.7 308 3.4 308 0 308 C0 206.36 0 104.72 0 0 Z " fill="#EABAB6" transform="translate(1081,0)"/>
<path d="M0 0 C3.3 0 6.6 0 10 0 C10 101.64 10 203.28 10 308 C6.7 308 3.4 308 0 308 C0 206.36 0 104.72 0 0 Z " fill="#EAB9B4" transform="translate(1061,0)"/>
<path d="M0 0 C3.3 0 6.6 0 10 0 C10 101.64 10 203.28 10 308 C6.7 308 3.4 308 0 308 C0 206.36 0 104.72 0 0 Z " fill="#EAB8B4" transform="translate(974,0)"/>
<path d="M0 0 C3.3 0 6.6 0 10 0 C10 101.64 10 203.28 10 308 C6.7 308 3.4 308 0 308 C0 206.36 0 104.72 0 0 Z " fill="#EAB8B4" transform="translate(906,0)"/>
<path d="M0 0 C3.3 0 6.6 0 10 0 C10 101.64 10 203.28 10 308 C6.7 308 3.4 308 0 308 C0 206.36 0 104.72 0 0 Z " fill="#EABAB5" transform="translate(819,0)"/>
<path d="M0 0 C3.3 0 6.6 0 10 0 C10 101.64 10 203.28 10 308 C6.7 308 3.4 308 0 308 C0 206.36 0 104.72 0 0 Z " fill="#EAB9B5" transform="translate(799,0)"/>
<path d="M0 0 C3.3 0 6.6 0 10 0 C10 101.64 10 203.28 10 308 C6.7 308 3.4 308 0 308 C0 206.36 0 104.72 0 0 Z " fill="#EAB8B4" transform="translate(712,0)"/>
<path d="M0 0 C3.3 0 6.6 0 10 0 C10 101.64 10 203.28 10 308 C6.7 308 3.4 308 0 308 C0 206.36 0 104.72 0 0 Z " fill="#EAB8B4" transform="translate(644,0)"/>
<path d="M0 0 C3.3 0 6.6 0 10 0 C10 101.64 10 203.28 10 308 C6.7 308 3.4 308 0 308 C0 206.36 0 104.72 0 0 Z " fill="#EAB9B5" transform="translate(557,0)"/>
<path d="M0 0 C3.3 0 6.6 0 10 0 C10 101.64 10 203.28 10 308 C6.7 308 3.4 308 0 308 C0 206.36 0 104.72 0 0 Z " fill="#EABAB5" transform="translate(537,0)"/>
<path d="M0 0 C3.3 0 6.6 0 10 0 C10 101.64 10 203.28 10 308 C6.7 308 3.4 308 0 308 C0 206.36 0 104.72 0 0 Z " fill="#EAB8B4" transform="translate(450,0)"/>
<path d="M0 0 C3.3 0 6.6 0 10 0 C10 101.64 10 203.28 10 308 C6.7 308 3.4 308 0 308 C0 206.36 0 104.72 0 0 Z " fill="#EAB8B4" transform="translate(382,0)"/>
<path d="M0 0 C3.3 0 6.6 0 10 0 C10 101.64 10 203.28 10 308 C6.7 308 3.4 308 0 308 C0 206.36 0 104.72 0 0 Z " fill="#EAB9B4" transform="translate(295,0)"/>
<path d="M0 0 C3.3 0 6.6 0 10 0 C10 101.64 10 203.28 10 308 C6.7 308 3.4 308 0 308 C0 206.36 0 104.72 0 0 Z " fill="#EABAB6" transform="translate(275,0)"/>
<path d="M0 0 C3.3 0 6.6 0 10 0 C10 101.64 10 203.28 10 308 C6.7 308 3.4 308 0 308 C0 206.36 0 104.72 0 0 Z " fill="#EAB9B4" transform="translate(188,0)"/>
<path d="M0 0 C3.3 0 6.6 0 10 0 C10 101.64 10 203.28 10 308 C6.7 308 3.4 308 0 308 C0 206.36 0 104.72 0 0 Z " fill="#EAB8B4" transform="translate(101,0)"/>
<path d="M0 0 C3.3 0 6.6 0 10 0 C10 101.64 10 203.28 10 308 C6.7 308 3.4 308 0 308 C0 206.36 0 104.72 0 0 Z " fill="#EAB8B4" transform="translate(33,0)"/>
<path d="M0 0 C2.97 0 5.94 0 9 0 C9 101.64 9 203.28 9 308 C6.03 308 3.06 308 0 308 C0 206.36 0 104.72 0 0 Z " fill="#F7ECDC" transform="translate(1333,0)"/>
<path d="M0 0 C2.97 0 5.94 0 9 0 C9 101.64 9 203.28 9 308 C6.03 308 3.06 308 0 308 C0 206.36 0 104.72 0 0 Z " fill="#F8EDDD" transform="translate(1246,0)"/>
<path d="M0 0 C2.97 0 5.94 0 9 0 C9 101.64 9 203.28 9 308 C6.03 308 3.06 308 0 308 C0 206.36 0 104.72 0 0 Z " fill="#F7EBDC" transform="translate(1159,0)"/>
<path d="M0 0 C2.97 0 5.94 0 9 0 C9 101.64 9 203.28 9 308 C6.03 308 3.06 308 0 308 C0 206.36 0 104.72 0 0 Z " fill="#F8EDDD" transform="translate(984,0)"/>
<path d="M0 0 C2.97 0 5.94 0 9 0 C9 101.64 9 203.28 9 308 C6.03 308 3.06 308 0 308 C0 206.36 0 104.72 0 0 Z " fill="#F8ECDC" transform="translate(897,0)"/>
<path d="M0 0 C2.97 0 5.94 0 9 0 C9 101.64 9 203.28 9 308 C6.03 308 3.06 308 0 308 C0 206.36 0 104.72 0 0 Z " fill="#F8EDDD" transform="translate(722,0)"/>
<path d="M0 0 C2.97 0 5.94 0 9 0 C9 101.64 9 203.28 9 308 C6.03 308 3.06 308 0 308 C0 206.36 0 104.72 0 0 Z " fill="#F8EDDD" transform="translate(635,0)"/>
<path d="M0 0 C2.97 0 5.94 0 9 0 C9 101.64 9 203.28 9 308 C6.03 308 3.06 308 0 308 C0 206.36 0 104.72 0 0 Z " fill="#F8ECDC" transform="translate(460,0)"/>
<path d="M0 0 C2.97 0 5.94 0 9 0 C9 101.64 9 203.28 9 308 C6.03 308 3.06 308 0 308 C0 206.36 0 104.72 0 0 Z " fill="#F8EDDD" transform="translate(373,0)"/>
<path d="M0 0 C2.97 0 5.94 0 9 0 C9 101.64 9 203.28 9 308 C6.03 308 3.06 308 0 308 C0 206.36 0 104.72 0 0 Z " fill="#F7EBDC" transform="translate(198,0)"/>
<path d="M0 0 C2.97 0 5.94 0 9 0 C9 101.64 9 203.28 9 308 C6.03 308 3.06 308 0 308 C0 206.36 0 104.72 0 0 Z " fill="#F8EDDD" transform="translate(111,0)"/>
<path d="M0 0 C2.97 0 5.94 0 9 0 C9 101.64 9 203.28 9 308 C6.03 308 3.06 308 0 308 C0 206.36 0 104.72 0 0 Z " fill="#F7ECDC" transform="translate(24,0)"/>
</svg>
